<svg width="64" height="64" viewBox="0 0 64 64" fill="none" xmlns="http://www.w3.org/2000/svg">
<path d="M32.7535 55.5123C29.397 55.5123 26.2477 54.8785 23.3055 53.611C20.3633 52.3416 17.7917 50.6074 15.5908 48.4083C13.3899 46.2092 11.6566 43.6376 10.3908 40.6936C9.12148 37.7514 8.48682 34.6021 8.48682 31.2456C8.48682 26.0545 9.98015 21.3754 12.9668 17.2083C15.957 13.0376 19.8993 10.1309 24.7935 8.48828C24.6104 12.6483 25.2486 16.6483 26.7082 20.4883C28.1659 24.3283 30.3704 27.7238 33.3215 30.6749C36.2726 33.6261 39.6681 35.8314 43.5081 37.2909C47.3499 38.7505 51.3517 39.3887 55.5135 39.2056C53.8779 44.0998 50.973 48.0412 46.7988 51.0296C42.6246 54.0181 37.9428 55.5123 32.7535 55.5123Z" fill="#065B33"/>
</svg>
