<svg width="64" height="64" viewBox="0 0 64 64" fill="none" xmlns="http://www.w3.org/2000/svg">
<path d="M9.175 7.814L32 3L54.825 7.814C55.4418 7.94414 55.9935 8.27 56.3889 8.7378C56.7843 9.20559 56.9999 9.78736 57 10.3871V36.7165C56.9998 39.3205 56.3222 41.8842 55.0275 44.18C53.7327 46.4759 51.8607 48.4328 49.5778 49.8772L32 61L14.4222 49.8772C12.1396 48.4331 10.2679 46.4765 8.97319 44.1812C7.67843 41.8859 7.00066 39.3227 7 36.7191V10.3871C7.00011 9.78736 7.21566 9.20559 7.61108 8.7378C8.0065 8.27 8.55816 7.94414 9.175 7.814ZM12.5556 12.5015V36.7165C12.5556 38.4524 13.0072 40.1615 13.8702 41.692C14.7332 43.2226 15.981 44.5273 17.5028 45.4903L32 54.6648L46.4972 45.4903C48.0186 44.5275 49.2662 43.2233 50.1292 41.6932C50.9922 40.1631 51.444 38.4546 51.4444 36.7191V12.5015L32 8.40455L12.5556 12.5015Z" fill="#065B33"/>
<path d="M17.392 15.154L32 12L46.608 15.154C47.0028 15.2393 47.3558 15.4528 47.6089 15.7592C47.862 16.0657 47.9999 16.4469 48 16.8398V34.0901C47.9999 35.7962 47.5662 37.4758 46.7376 38.98C45.9089 40.4842 44.7109 41.7663 43.2498 42.7126L32 50L20.7502 42.7126C19.2894 41.7665 18.0915 40.4846 17.2628 38.9808C16.4342 37.4769 16.0004 35.7976 16 34.0918V16.8398C16.0001 16.4469 16.138 16.0657 16.3911 15.7592C16.6442 15.4528 16.9972 15.2393 17.392 15.154ZM19.5556 18.2251V34.0901C19.5556 35.2274 19.8446 36.3472 20.3969 37.35C20.9492 38.3527 21.7478 39.2075 22.7218 39.8385L32 45.8494L41.2782 39.8385C42.2519 39.2077 43.0504 38.3532 43.6027 37.3507C44.155 36.3483 44.4441 35.2289 44.4444 34.0918V18.2251L32 15.5409L19.5556 18.2251Z" fill="#065B33"/>
<path d="M23.783 20.909L32 19L40.217 20.909C40.4391 20.9606 40.6377 21.0898 40.78 21.2753C40.9224 21.4608 41 21.6915 41 21.9294V32.3703C40.9999 33.4029 40.756 34.4196 40.2899 35.33C39.8238 36.2404 39.1499 37.0165 38.328 37.5892L32 42L25.672 37.5892C24.8503 37.0166 24.1765 36.2407 23.7103 35.3305C23.2442 34.4202 23.0002 33.4038 23 32.3714V21.9294C23 21.6915 23.0776 21.4608 23.22 21.2753C23.3623 21.0898 23.5609 20.9606 23.783 20.909ZM25 22.7678V32.3703C25 33.0587 25.1626 33.7364 25.4733 34.3434C25.7839 34.9503 26.2332 35.4677 26.781 35.8496L32 39.4878L37.219 35.8496C37.7667 35.4678 38.2158 34.9506 38.5265 34.3439C38.8372 33.7371 38.9998 33.0596 39 32.3714V22.7678L32 21.1432L25 22.7678Z" fill="#065B33"/>
</svg>
