<svg width="90" height="77" viewBox="0 0 90 77" fill="none" xmlns="http://www.w3.org/2000/svg">
<rect x="9.75684" y="12.7109" width="7.10532" height="62.2899" fill="#065B33"/>
<rect width="4.03933" height="35.9054" transform="matrix(-0.322804 -0.946466 0.910618 -0.413249 1.30371 20.6611)" fill="#065B33"/>
<path d="M16.7695 29.4131L16.7695 19.2215L28.55 26.2772L28.55 29.4131L16.7695 29.4131Z" fill="#065B33"/>
<rect x="16.7695" y="58.2305" width="16.9467" height="9.7943" transform="rotate(-90 16.7695 58.2305)" fill="#065B33"/>
<rect x="17.9932" y="62.4668" width="5.6489" height="1.22429" transform="rotate(-90 17.9932 62.4668)" fill="#065B33"/>
<rect x="20.4414" y="62.4668" width="5.6489" height="1.22429" transform="rotate(-90 20.4414 62.4668)" fill="#065B33"/>
<rect x="22.8906" y="62.4668" width="5.6489" height="1.22429" transform="rotate(-90 22.8906 62.4668)" fill="#065B33"/>
<path d="M22.8576 33.2012C21.5086 33.2012 20.415 32.1076 20.415 30.7586L20.415 29.1032L25.3888 29.1032L25.3888 30.6701C25.3888 32.068 24.2555 33.2012 22.8576 33.2012V33.2012Z" fill="#065B33"/>
<path d="M65.3431 22.5247C65.3431 28.1947 60.6326 32.7871 54.8168 32.7871C50.5273 32.7871 46.6721 30.2343 45.08 26.3475L41.0931 16.5854C41.0007 16.3589 40.9764 16.1113 41.0231 15.8718C41.0698 15.6323 41.1856 15.4108 41.3568 15.2331C41.528 15.0554 41.7476 14.929 41.9899 14.8686C42.2321 14.8082 42.487 14.8163 42.7247 14.8921L43.7642 15.2256C44.501 15.4565 45.1063 16.0081 45.3958 16.7137L47.08 20.8314C47.1852 21.088 47.4221 21.2419 47.6852 21.2419H48.2379V6.16909C48.2379 5.74381 48.4111 5.33596 48.7196 5.03525C49.028 4.73453 49.4464 4.56559 49.8826 4.56559C50.3188 4.56559 50.7372 4.73453 51.0456 5.03525C51.3541 5.33596 51.5273 5.74381 51.5273 6.16909V16.7522C51.5273 17.1113 51.8168 17.3936 52.1852 17.3936C52.5537 17.3936 52.8431 17.1113 52.8431 16.7522V3.6035C52.8431 3.17822 53.0164 2.77037 53.3249 2.46965C53.6333 2.16894 54.0517 2 54.4879 2C54.9241 2 55.3424 2.16894 55.6509 2.46965C55.9593 2.77037 56.1326 3.17822 56.1326 3.6035V16.7522C56.1326 17.1113 56.4221 17.3936 56.7905 17.3936C57.1589 17.3936 57.4484 17.1113 57.4484 16.7522V5.52769C57.4484 5.10242 57.6217 4.69456 57.9301 4.39385C58.2386 4.09313 58.6569 3.92419 59.0931 3.92419C59.5293 3.92419 59.9477 4.09313 60.2561 4.39385C60.5646 4.69456 60.7379 5.10242 60.7379 5.52769V16.7522C60.7379 17.1113 61.0273 17.3936 61.3958 17.3936C61.7642 17.3936 62.0537 17.1113 62.0537 16.7522V9.37608C62.0537 8.95081 62.2269 8.54295 62.5354 8.24224C62.8438 7.94152 63.2622 7.77258 63.6984 7.77258C64.1346 7.77258 64.5529 7.94152 64.8614 8.24224C65.1698 8.54295 65.3431 8.95081 65.3431 9.37608V22.5247Z" fill="#065B33"/>
<path d="M41 28.9386L66 4.56543" stroke="#065B33"/>
<path fill-rule="evenodd" clip-rule="evenodd" d="M59.8949 43.1777C54.4787 43.1777 51.5106 44.3679 49.6279 46.0723C48.0518 45.5301 46.654 45.6319 44.4973 46.2951C45.9569 47.4496 46.7543 48.2719 47.2975 49.2075C47.0259 49.7167 46.7753 50.2335 46.5246 50.749C45.3577 53.1573 44.2024 55.5389 41 56.8768V61.1028C43.3082 63.5977 47.962 65.3187 51.6179 64.756C53.5158 69.6236 59.7433 68.7848 64.5568 68.1369L65.4545 68.0172C64.6512 66.8105 64.2421 65.2818 64.326 63.4793C64.3338 63.3123 64.3717 63.1487 64.4374 62.9976C64.5031 62.8466 64.5955 62.7112 64.7091 62.5992C64.8228 62.4871 64.9556 62.4006 65.0999 62.3446C65.2441 62.2885 65.3971 62.2641 65.5501 62.2726C65.703 62.2811 65.8529 62.3225 65.9912 62.3942C66.1295 62.466 66.2535 62.5669 66.3562 62.691C66.4588 62.8151 66.538 62.96 66.5893 63.1176C66.6406 63.2751 66.663 63.4422 66.6552 63.6092C66.5713 65.3912 67.1507 66.5661 68.0845 67.3426C68.9704 68.0783 70.2761 68.5328 71.8919 68.6206C78.06 68.2896 82.9679 62.7245 82.9679 55.9068C82.9679 49.2902 78.3444 43.8524 72.434 43.2363V43.1777H59.8949ZM51.492 53.361C51.8012 53.361 52.0977 53.2269 52.3163 52.9882C52.5349 52.7494 52.6578 52.4257 52.6578 52.0881C52.6578 51.7505 52.5349 51.4267 52.3163 51.188C52.0977 50.9493 51.8012 50.8152 51.492 50.8152C51.1828 50.8152 50.8863 50.9493 50.6677 51.188C50.449 51.4267 50.3262 51.7505 50.3262 52.0881C50.3262 52.4257 50.449 52.7494 50.6677 52.9882C50.8863 53.2269 51.1828 53.361 51.492 53.361Z" fill="#065B33"/>
<path fill-rule="evenodd" clip-rule="evenodd" d="M84.2801 40.6898C84.9189 41.3262 85.299 42.2427 85.299 43.3361C85.299 43.7218 85.2477 44.0922 85.1591 44.4423C85.5506 44.425 85.9424 44.4148 86.3342 44.4117C86.6434 44.4117 86.9399 44.5459 87.1585 44.7846C87.3771 45.0233 87.5 45.3471 87.5 45.6847C87.5 46.0223 87.3771 46.346 87.1585 46.5847C86.9399 46.8235 86.6434 46.9576 86.3342 46.9576C85.9611 46.9576 85.5858 46.9728 85.1801 46.9894C84.9073 46.9996 84.6205 47.011 84.3092 47.0187C84.1169 47.0238 83.9199 47.0263 83.7193 47.0263C83.3335 47.4693 82.915 47.8626 82.5151 48.2012C81.7406 48.8501 80.912 49.4182 80.0402 49.898L79.9935 49.9234L79.9795 49.9311L79.9749 49.9336H79.9725L79.4701 48.7855L78.9688 47.636L78.9735 47.6335L79.0038 47.6169C79.2112 47.5026 79.4157 47.3821 79.617 47.2554C79.9259 47.0619 80.3095 46.8035 80.7081 46.4955C80.4245 46.3574 80.1601 46.1766 79.9224 45.9583C79.2381 45.3219 78.8872 44.4194 78.8872 43.3361C78.8872 42.2402 79.2649 41.3199 79.9073 40.6834C80.5093 40.0982 81.2894 39.7787 82.0954 39.7873C82.9009 39.7833 83.6792 40.1053 84.2801 40.691M82.6387 44.427C82.866 44.0197 82.9674 43.6569 82.9674 43.3374C82.9674 42.9186 82.8369 42.6997 82.7109 42.5749C82.5382 42.4144 82.3176 42.3283 82.0908 42.3331C81.8651 42.3261 81.6451 42.4104 81.4729 42.5699C81.3505 42.6908 81.2188 42.9097 81.2188 43.3374C81.2188 43.7766 81.3365 43.9306 81.4333 44.0197C81.5836 44.1597 81.8809 44.3074 82.416 44.3952C82.4883 44.4079 82.5629 44.4181 82.6387 44.427Z" fill="#065B33"/>
<path d="M54.99 64.8174H58.4873V75.0006H54.99V64.8174ZM53.8242 73.7277C53.8242 73.3901 53.947 73.0664 54.1657 72.8276C54.3843 72.5889 54.6808 72.4548 54.99 72.4548V75.0006H53.8242V73.7277ZM72.4766 64.8174H75.974V75.0006H72.4766V64.8174ZM71.3109 73.7277C71.3109 73.3901 71.4337 73.0664 71.6523 72.8276C71.8709 72.5889 72.1674 72.4548 72.4766 72.4548V75.0006H71.3109V73.7277Z" fill="#065B33"/>
</svg>
