<svg width="35" height="34" viewBox="0 0 35 34" fill="none" xmlns="http://www.w3.org/2000/svg">
<ellipse cx="17.1451" cy="17" rx="17.0118" ry="17" fill="#C9C9C9"/>
<path d="M21.426 7H11.9004C9.27005 7 7.1377 9.13088 7.1377 11.7594V21.2783C7.1377 23.9069 9.27005 26.0378 11.9004 26.0378H21.426C24.0563 26.0378 26.1887 23.9069 26.1887 21.2783V11.7594C26.1887 9.13088 24.0563 7 21.426 7Z" fill="#C9C9C9" stroke="#0E0E0E" stroke-width="2" stroke-linecap="round" stroke-linejoin="round"/>
<path d="M20.4737 15.919C20.5913 16.7112 20.4559 17.5203 20.0868 18.2311C19.7176 18.942 19.1336 19.5185 18.4178 19.8785C17.7019 20.2386 16.8907 20.3639 16.0994 20.2367C15.3082 20.1095 14.5772 19.7361 14.0105 19.1698C13.4438 18.6035 13.0702 17.8731 12.9429 17.0824C12.8156 16.2917 12.941 15.481 13.3013 14.7656C13.6616 14.0503 14.2385 13.4667 14.9499 13.0978C15.6612 12.729 16.4709 12.5936 17.2636 12.7111C18.0723 12.8309 18.8209 13.2075 19.399 13.7851C19.977 14.3628 20.3538 15.1109 20.4737 15.919Z" stroke="#0E0E0E" stroke-width="2" stroke-linecap="round" stroke-linejoin="round"/>
<path d="M21.9023 11.2832H21.9123" stroke="#0E0E0E" stroke-width="2" stroke-linecap="round" stroke-linejoin="round"/>
</svg>
