<svg width="15" height="30" viewBox="0 0 15 30" fill="none" xmlns="http://www.w3.org/2000/svg">
<path d="M14.6066 27.6721L3.07911 15.9596C2.82629 15.7041 2.68449 15.3591 2.68449 14.9996C2.68449 14.6401 2.82629 14.2952 3.07911 14.0396L14.6041 2.32712C14.8568 2.06998 14.9984 1.72389 14.9984 1.36337C14.9984 1.00286 14.8568 0.656762 14.6041 0.399624C14.4807 0.273002 14.3331 0.172372 14.1702 0.103663C14.0072 0.0349535 13.8322 -0.000445017 13.6554 -0.000445009C13.4785 -0.000445001 13.3035 0.0349536 13.1405 0.103663C12.9776 0.172372 12.8301 0.273002 12.7066 0.399624L1.18161 12.1096C0.424298 12.8809 -7.02979e-07 13.9187 -6.5573e-07 14.9996C-6.0848e-07 16.0806 0.424298 17.1183 1.18161 17.8896L12.7066 29.5996C12.8301 29.7266 12.9778 29.8276 13.141 29.8965C13.3041 29.9655 13.4795 30.001 13.6566 30.001C13.8338 30.001 14.0091 29.9655 14.1723 29.8965C14.3354 29.8276 14.4831 29.7266 14.6066 29.5996C14.8593 29.3425 15.0009 28.9964 15.0009 28.6359C15.0009 28.2754 14.8593 27.9293 14.6066 27.6721Z" fill="#065B33"/>
</svg>
