<svg width="35" height="34" viewBox="0 0 35 34" fill="none" xmlns="http://www.w3.org/2000/svg">
<ellipse cx="17.1119" cy="17" rx="17.0118" ry="17" fill="#C9C9C9"/>
<path d="M19.5361 13.7109C21.0519 13.7109 22.5056 14.3127 23.5774 15.3838C24.6493 16.4548 25.2514 17.9075 25.2514 19.4223V26.0855H21.4412V19.4223C21.4412 18.9174 21.2405 18.4331 20.8832 18.0761C20.5259 17.7191 20.0414 17.5185 19.5361 17.5185C19.0308 17.5185 18.5463 17.7191 18.189 18.0761C17.8317 18.4331 17.631 18.9174 17.631 19.4223V26.0855H13.8208V19.4223C13.8208 17.9075 14.4229 16.4548 15.4948 15.3838C16.5666 14.3127 18.0203 13.7109 19.5361 13.7109V13.7109Z" fill="#0E0E0E"/>
<path d="M11.9157 14.6631H8.10547V26.0858H11.9157V14.6631Z" fill="#0E0E0E"/>
<path d="M10.0106 11.8076C11.0627 11.8076 11.9157 10.9552 11.9157 9.90378C11.9157 8.85235 11.0627 8 10.0106 8C8.95841 8 8.10547 8.85235 8.10547 9.90378C8.10547 10.9552 8.95841 11.8076 10.0106 11.8076Z" fill="#0E0E0E"/>
</svg>
