<svg width="15" height="30" viewBox="0 0 15 30" fill="none" xmlns="http://www.w3.org/2000/svg">
<path d="M0.394362 2.32885L11.9219 14.0414C12.1747 14.2969 12.3165 14.6419 12.3165 15.0014C12.3165 15.3608 12.1747 15.7058 11.9219 15.9614L0.396862 27.6739C0.144173 27.931 0.00258227 28.2771 0.00258225 28.6376C0.00258224 28.9981 0.144173 29.3442 0.396862 29.6014C0.520305 29.728 0.667844 29.8286 0.830786 29.8973C0.993728 29.966 1.16878 30.0014 1.34561 30.0014C1.52245 30.0014 1.6975 29.966 1.86044 29.8973C2.02338 29.8286 2.17092 29.728 2.29436 29.6014L13.8194 17.8914C14.5767 17.12 15.001 16.0823 15.001 15.0014C15.001 13.9204 14.5767 12.8827 13.8194 12.1114L2.29436 0.401352C2.17088 0.274348 2.02319 0.173392 1.86001 0.104455C1.69684 0.0355179 1.5215 -5.89207e-07 1.34436 -5.9695e-07C1.16722 -6.04692e-07 0.991887 0.0355179 0.828713 0.104455C0.66554 0.173392 0.517844 0.274347 0.394362 0.401352C0.141673 0.658491 8.24489e-05 1.00459 8.24332e-05 1.3651C8.24174e-05 1.72562 0.141673 2.07171 0.394362 2.32885Z" fill="#065B33"/>
</svg>
