<svg id="e38a7d0a-72b9-4489-a60c-75f9acb1816e" data-name="Layer 1" xmlns="http://www.w3.org/2000/svg" viewBox="0 0 3240 3240"><defs><style>.a40b9b67-aeca-4ed6-83fc-a0212453146c{fill:#f2f2f0;}</style></defs><path class="a40b9b67-aeca-4ed6-83fc-a0212453146c" d="M632.58339,2942.01646,557.1703,2723.41685h61.25489l55.76513,176.53808H647.03017L703.662,2723.41685h60.38819l-76.56885,218.59961Z"/><path class="a40b9b67-aeca-4ed6-83fc-a0212453146c" d="M742.66982,2942.01646l78.30224-218.59961h58.94336L957.351,2942.01646H897.25185l-57.49854-185.748H860.557l-58.94385,185.748Zm50.85351-36.84278v-47.8955H908.5204v47.8955Z"/><path class="a40b9b67-aeca-4ed6-83fc-a0212453146c" d="M973.81923,2942.01646V2723.41685h40.45117l17.33643,46.05371v172.5459Zm141.57959,0L996.06728,2782.67173l18.20312-59.25488,119.33154,159.34472Zm0,0-14.44678-48.50977V2723.41685h57.7876v218.59961Z"/><path class="a40b9b67-aeca-4ed6-83fc-a0212453146c" d="M1177.51894,2942.01646l78.30224-218.59961h58.94336l77.43555,218.59961H1332.101l-57.49854-185.748h20.80371l-58.94384,185.748Zm50.85351-36.84278v-47.8955h114.99707v47.8955Z"/><path class="a40b9b67-aeca-4ed6-83fc-a0212453146c" d="M1408.66786,2942.01646V2723.41685h57.7876v218.59961Zm38.71778,0V2889.8231h47.96386q16.17774,0,28.02686-6.294a42.0822,42.0822,0,0,0,18.20312-19.18945q6.35231-12.895,6.35645-31.92969,0-19.03272-6.501-31.624a43.41389,43.41389,0,0,0-18.20312-18.88086q-11.7019-6.29-27.88233-6.29492H1444.496v-52.19336h50.85351a125.70978,125.70978,0,0,1,44.64063,7.67578,102.8309,102.8309,0,0,1,35.395,22.10547,99.65671,99.65671,0,0,1,23.25927,34.54q8.23536,20.1123,8.23487,44.97851,0,24.86865-8.23487,44.97852a99.566,99.566,0,0,1-23.25927,34.54,103.00276,103.00276,0,0,1-35.25049,22.10547,123.58941,123.58941,0,0,1-44.20752,7.67578Z"/><path class="a40b9b67-aeca-4ed6-83fc-a0212453146c" d="M1732.27528,2946.31431a113.72213,113.72213,0,0,1-44.64062-8.5957,107.9107,107.9107,0,0,1-59.08789-60.17676,126.75505,126.75505,0,0,1-.14453-90.26465,108.37011,108.37011,0,0,1,23.25927-35.9209,105.49935,105.49935,0,0,1,35.395-23.79492,122.24521,122.24521,0,0,1,89.28174,0,105.54284,105.54284,0,0,1,35.395,23.79492,108.03078,108.03078,0,0,1,23.25977,36.0752,127.7976,127.7976,0,0,1,0,90.26367,109.66519,109.66519,0,0,1-23.25977,36.22851,104.70528,104.70528,0,0,1-35.25049,23.94825A113.6675,113.6675,0,0,1,1732.27528,2946.31431Zm-.57763-54.03516q16.17846,0,28.02685-7.36914a47.9429,47.9429,0,0,0,18.20313-20.87695q6.35229-13.50732,6.35644-31.62305a77.38894,77.38894,0,0,0-3.61132-24.4082,53.0727,53.0727,0,0,0-10.54639-18.72852,46.2265,46.2265,0,0,0-16.61377-11.97363,54.91429,54.91429,0,0,0-21.81494-4.14551q-16.18506,0-28.02686,7.21582a47.08817,47.08817,0,0,0-18.20312,20.57031q-6.35889,13.355-6.35694,31.46973a79.76509,79.76509,0,0,0,3.61182,24.86817,52.77172,52.77172,0,0,0,10.54639,18.88183,46.19831,46.19831,0,0,0,16.61377,11.97461A54.916,54.916,0,0,0,1731.69765,2892.27915Z"/><path class="a40b9b67-aeca-4ed6-83fc-a0212453146c" d="M1972.09023,2946.31431a113.72388,113.72388,0,0,1-44.64063-8.5957,107.9107,107.9107,0,0,1-59.08789-60.17676,126.75519,126.75519,0,0,1-.14453-90.26465,108.37,108.37,0,0,1,23.25928-35.9209,105.49915,105.49915,0,0,1,35.395-23.79492,122.24392,122.24392,0,0,1,89.28125,0,105.56364,105.56364,0,0,1,35.39648,23.79492,108.03331,108.03331,0,0,1,23.25781,36.0752,127.76914,127.76914,0,0,1,0,90.26367,109.66783,109.66783,0,0,1-23.25781,36.22851,104.73058,104.73058,0,0,1-35.252,23.94825A113.66162,113.66162,0,0,1,1972.09023,2946.31431Zm-.57813-54.03516q16.17774,0,28.02734-7.36914a47.93361,47.93361,0,0,0,18.20313-20.87695q6.35156-13.50732,6.35742-31.62305a77.38766,77.38766,0,0,0-3.61328-24.4082,53.055,53.055,0,0,0-10.54492-18.72852,46.215,46.215,0,0,0-16.61524-11.97363,54.91013,54.91013,0,0,0-21.81445-4.14551q-16.18359,0-28.02734,7.21582a47.09519,47.09519,0,0,0-18.20215,20.57031q-6.35889,13.355-6.35694,31.46973a79.76509,79.76509,0,0,0,3.61182,24.86817,52.77261,52.77261,0,0,0,10.54688,18.88183,46.205,46.205,0,0,0,16.61328,11.97461A54.91353,54.91353,0,0,0,1971.5121,2892.27915Z"/><path class="a40b9b67-aeca-4ed6-83fc-a0212453146c" d="M2086.21913,2775.61021v-52.19336h181.16406v52.19336Zm61.544,166.40625V2723.41685h57.78711v218.59961Z"/><path class="a40b9b67-aeca-4ed6-83fc-a0212453146c" d="M2289.05214,2942.01646V2723.41685h57.78809v218.59961Zm31.49512-85.96582v-50.96582h115.28613v50.96582Zm92.749,85.96582V2723.41685h57.78711v218.59961Z"/><path class="a40b9b67-aeca-4ed6-83fc-a0212453146c" d="M2489.85976,2942.01646l78.30273-218.59961h58.94336l77.43555,218.59961h-60.09961l-57.499-185.748h20.80372l-58.94336,185.748Zm50.85351-36.84278v-47.8955h114.99707v47.8955Z"/><path class="a40b9b67-aeca-4ed6-83fc-a0212453146c" d="M628.31581,3135.75376v-52.20117l1.04688,7.3291-42.32959-59.83008h19.44482l32.30811,46.36817-3.73975-.44825,29.167-45.91992h18.54737L642.226,3092.5272l2.24365-10.17188v53.39844Z"/><path class="a40b9b67-aeca-4ed6-83fc-a0212453146c" d="M718.35976,3137.24986a39.8567,39.8567,0,0,1-20.56641-5.31055,38.7032,38.7032,0,0,1-14.28418-14.50879,44.79593,44.79593,0,0,1,0-42.03027,38.73128,38.73128,0,0,1,14.28418-14.50879,42.19705,42.19705,0,0,1,40.9834,0,38.77068,38.77068,0,0,1,14.28418,14.50879,44.79964,44.79964,0,0,1,0,42.03027,38.74253,38.74253,0,0,1-14.28418,14.50879A39.58321,39.58321,0,0,1,718.35976,3137.24986Zm0-14.06055a22.93134,22.93134,0,0,0,12.564-3.51465,24.40744,24.40744,0,0,0,8.67578-9.57324,28.0803,28.0803,0,0,0,2.99121-13.68555,28.42876,28.42876,0,0,0-2.99121-13.83594,23.88662,23.88662,0,0,0-8.67578-9.498,24.57454,24.57454,0,0,0-25.20312.07519,24.22292,24.22292,0,0,0-8.75,9.57227,32.80527,32.80527,0,0,0,0,27.37207,24.20608,24.20608,0,0,0,8.75,9.57324A23.30012,23.30012,0,0,0,718.35976,3123.18931Z"/><path class="a40b9b67-aeca-4ed6-83fc-a0212453146c" d="M802.56825,3137.24986a26.89354,26.89354,0,0,1-14.58349-3.88965,25.555,25.555,0,0,1-9.57276-10.91895,38.461,38.461,0,0,1-3.36523-16.75195v-48.46192h15.40576v44.27344a29.7719,29.7719,0,0,0,2.16895,11.8916,16.95472,16.95472,0,0,0,6.28222,7.70313,17.7599,17.7599,0,0,0,9.94678,2.69238,21.345,21.345,0,0,0,7.92725-1.4209,18.62531,18.62531,0,0,0,6.20752-3.96386,18.21142,18.21142,0,0,0,4.11328-6.13282,20.04014,20.04014,0,0,0,1.4956-7.77734v-47.26563h15.40625v78.52637H828.59413v-16.45312l2.69238-1.79493a26.15608,26.15608,0,0,1-6.05761,10.02149,31.60327,31.60327,0,0,1-10.09668,7.10449A30.346,30.346,0,0,1,802.56825,3137.24986Z"/><path class="a40b9b67-aeca-4ed6-83fc-a0212453146c" d="M865.53847,3135.75376v-78.52637h15.55566v24.67969l-1.49609-5.9834a27.49668,27.49668,0,0,1,5.60937-10.32031,30.50525,30.50525,0,0,1,9.124-7.3291,22.83375,22.83375,0,0,1,10.69433-2.69238,25.509,25.509,0,0,1,4.86133.44922,17.56353,17.56353,0,0,1,3.66455,1.04687l-4.03857,16.75195a26.74781,26.74781,0,0,0-3.96387-1.27148,18.2047,18.2047,0,0,0-4.2627-.52344,19.35284,19.35284,0,0,0-7.70312,1.57031,20.33457,20.33457,0,0,0-6.43164,4.33789,21.4028,21.4028,0,0,0-4.4126,6.43165,19.29783,19.29783,0,0,0-1.645,8.002v43.37695Z"/><path class="a40b9b67-aeca-4ed6-83fc-a0212453146c" d="M971.58632,3135.75376V3031.05161h15.855l38.14111,62.07325-7.62793-.14942,38.58985-61.92383h14.95752v104.70215H1055.348V3092.826q0-13.46192.67285-24.23145.6731-10.76807,2.31836-21.38867l2.09424,5.53418-34.25244,52.94922H1016.309l-33.20557-52.35059,1.64551-6.13281q1.64428,10.02246,2.31836,20.56641.6731,10.5454.67334,25.05371v42.92773Z"/><path class="a40b9b67-aeca-4ed6-83fc-a0212453146c" d="M1133.5746,3137.24986a43.672,43.672,0,0,1-21.46387-5.16114,38.0305,38.0305,0,0,1-14.6582-14.13476,39.75075,39.75075,0,0,1-5.31006-20.64063,45.90136,45.90136,0,0,1,2.9917-16.90234,40.54062,40.54062,0,0,1,8.30127-13.23731,36.50528,36.50528,0,0,1,12.71387-8.6748,41.62906,41.62906,0,0,1,16.0791-3.06641,34.67992,34.67992,0,0,1,14.20947,2.917,35.66588,35.66588,0,0,1,11.44238,8.002,35.1298,35.1298,0,0,1,7.479,12.041,40.71011,40.71011,0,0,1,2.46777,15.18164l-.14941,6.58106h-64.16748l-3.44043-12.26465h54.29541l-2.24317,2.542v-3.58984a17.34991,17.34991,0,0,0-3.291-8.82422,20.39945,20.39945,0,0,0-16.60254-8.376,27.76986,27.76986,0,0,0-13.61133,3.06543,19.768,19.768,0,0,0-8.376,8.97461,33.499,33.499,0,0,0-2.84179,14.584,28.43019,28.43019,0,0,0,3.43994,14.28418,23.43073,23.43073,0,0,0,9.72217,9.34863,30.81141,30.81141,0,0,0,14.50879,3.29,29.71154,29.71154,0,0,0,10.84423-1.94434,38.06914,38.06914,0,0,0,10.84424-7.03027l7.77783,10.91894a35.42447,35.42447,0,0,1-8.75,6.28223,54.60013,54.60013,0,0,1-10.91894,4.2627A42.78694,42.78694,0,0,1,1133.5746,3137.24986Z"/><path class="a40b9b67-aeca-4ed6-83fc-a0212453146c" d="M1210.75478,3137.24986a44.28242,44.28242,0,0,1-17.79932-3.44043,33.06136,33.06136,0,0,1-13.1626-10.1709l10.47022-8.97461a27.47931,27.47931,0,0,0,9.79736,7.55371,29.78154,29.78154,0,0,0,12.04053,2.31836,17.894,17.894,0,0,0,5.01074-.67383,11.826,11.826,0,0,0,4.03857-2.01855,8.9976,8.9976,0,0,0,2.61719-3.21583,9.37687,9.37687,0,0,0,.89746-4.11328,7.82058,7.82058,0,0,0-2.84179-6.28222,24.38067,24.38067,0,0,0-4.71143-2.31836,76.821,76.821,0,0,0-8.30127-2.61817,69.686,69.686,0,0,1-14.20947-5.085,26.89191,26.89191,0,0,1-8.52588-6.43164,19.07273,19.07273,0,0,1-3.29053-6.207,24.81341,24.81341,0,0,1-1.04736-7.4043,19.09709,19.09709,0,0,1,2.16894-9.0498,22.81459,22.81459,0,0,1,5.98291-7.17871,27.54345,27.54345,0,0,1,8.97461-4.71192,36.01579,36.01579,0,0,1,10.99366-1.6455,41.494,41.494,0,0,1,10.99365,1.49609,38.943,38.943,0,0,1,10.09619,4.33789,30.11624,30.11624,0,0,1,7.77783,6.73047l-8.82471,9.72266a37.5389,37.5389,0,0,0-6.20752-5.01075,32.1436,32.1436,0,0,0-6.80566-3.36621,19.31766,19.31766,0,0,0-6.28174-1.19629,24.9366,24.9366,0,0,0-5.68408.59864,12.35406,12.35406,0,0,0-4.2627,1.79492,7.92626,7.92626,0,0,0-2.61767,2.99121,8.90655,8.90655,0,0,0-.89746,4.03809,10.17483,10.17483,0,0,0,.97217,3.665,8.21246,8.21246,0,0,0,2.31836,2.917,24.36447,24.36447,0,0,0,4.936,2.542,57.00993,57.00993,0,0,0,8.37647,2.543,70.27877,70.27877,0,0,1,12.33984,4.26269,25.91031,25.91031,0,0,1,7.70264,5.31055,15.52732,15.52732,0,0,1,4.18847,6.58105,27.442,27.442,0,0,1,1.19629,8.376,20.12868,20.12868,0,0,1-3.814,12.041,25.62556,25.62556,0,0,1-10.2461,8.30078A33.64813,33.64813,0,0,1,1210.75478,3137.24986Z"/><path class="a40b9b67-aeca-4ed6-83fc-a0212453146c" d="M1282.39931,3137.24986a44.28242,44.28242,0,0,1-17.79932-3.44043,33.06136,33.06136,0,0,1-13.1626-10.1709l10.47022-8.97461a27.4794,27.4794,0,0,0,9.79736,7.55371,29.78154,29.78154,0,0,0,12.04053,2.31836,17.894,17.894,0,0,0,5.01074-.67383,11.82615,11.82615,0,0,0,4.03858-2.01855,8.99768,8.99768,0,0,0,2.61718-3.21583,9.37673,9.37673,0,0,0,.89746-4.11328,7.82058,7.82058,0,0,0-2.84179-6.28222,24.38067,24.38067,0,0,0-4.71143-2.31836,76.821,76.821,0,0,0-8.30127-2.61817,69.686,69.686,0,0,1-14.20947-5.085,26.89191,26.89191,0,0,1-8.52588-6.43164,19.07273,19.07273,0,0,1-3.29053-6.207,24.81341,24.81341,0,0,1-1.04736-7.4043,19.09709,19.09709,0,0,1,2.16894-9.0498,22.81459,22.81459,0,0,1,5.98291-7.17871,27.54345,27.54345,0,0,1,8.97461-4.71192,36.01583,36.01583,0,0,1,10.99366-1.6455,41.49392,41.49392,0,0,1,10.99365,1.49609,38.943,38.943,0,0,1,10.09619,4.33789,30.11624,30.11624,0,0,1,7.77783,6.73047l-8.8247,9.72266a37.53972,37.53972,0,0,0-6.20752-5.01075,32.1439,32.1439,0,0,0-6.80567-3.36621,19.31766,19.31766,0,0,0-6.28174-1.19629,24.93666,24.93666,0,0,0-5.68408.59864,12.354,12.354,0,0,0-4.26269,1.79492,7.92629,7.92629,0,0,0-2.61768,2.99121,8.90668,8.90668,0,0,0-.89746,4.03809,10.17483,10.17483,0,0,0,.97217,3.665,8.21246,8.21246,0,0,0,2.31836,2.917,24.36475,24.36475,0,0,0,4.936,2.542,57.01031,57.01031,0,0,0,8.37647,2.543,70.27877,70.27877,0,0,1,12.33984,4.26269,25.91031,25.91031,0,0,1,7.70264,5.31055,15.52732,15.52732,0,0,1,4.18847,6.58105,27.442,27.442,0,0,1,1.19629,8.376,20.12868,20.12868,0,0,1-3.814,12.041,25.62549,25.62549,0,0,1-10.2461,8.30078A33.64813,33.64813,0,0,1,1282.39931,3137.24986Z"/><path class="a40b9b67-aeca-4ed6-83fc-a0212453146c" d="M1364.51357,3137.24986a43.672,43.672,0,0,1-21.46387-5.16114,38.03043,38.03043,0,0,1-14.6582-14.13476,39.75075,39.75075,0,0,1-5.31006-20.64063,45.90116,45.90116,0,0,1,2.9917-16.90234,40.54062,40.54062,0,0,1,8.30127-13.23731,36.50524,36.50524,0,0,1,12.71386-8.6748,41.6291,41.6291,0,0,1,16.0791-3.06641,34.68,34.68,0,0,1,14.20948,2.917,35.666,35.666,0,0,1,11.44238,8.002,35.12962,35.12962,0,0,1,7.479,12.041,40.71011,40.71011,0,0,1,2.46778,15.18164l-.14942,6.58106h-64.16748l-3.44043-12.26465h54.29541l-2.24316,2.542v-3.58984a17.34992,17.34992,0,0,0-3.291-8.82422,20.39945,20.39945,0,0,0-16.60254-8.376,27.76982,27.76982,0,0,0-13.61132,3.06543,19.768,19.768,0,0,0-8.376,8.97461,33.49887,33.49887,0,0,0-2.8418,14.584,28.43019,28.43019,0,0,0,3.43994,14.28418,23.43073,23.43073,0,0,0,9.72217,9.34863,30.81147,30.81147,0,0,0,14.50879,3.29,29.71164,29.71164,0,0,0,10.84424-1.94434,38.06928,38.06928,0,0,0,10.84424-7.03027l7.77783,10.91894a35.42485,35.42485,0,0,1-8.75,6.28223,54.6,54.6,0,0,1-10.91895,4.2627A42.78693,42.78693,0,0,1,1364.51357,3137.24986Z"/><path class="a40b9b67-aeca-4ed6-83fc-a0212453146c" d="M1415.51845,3135.75376v-78.52637h15.40576v16.1543l-2.69238,1.79492a22.55311,22.55311,0,0,1,5.83349-9.64746,34.80968,34.80968,0,0,1,10.3208-7.17969,28.923,28.923,0,0,1,12.26514-2.76757q8.97437,0,14.95752,3.51562a21.5453,21.5453,0,0,1,8.97412,10.69434q2.99047,7.1792,2.9917,18.09863v47.86328h-15.40625v-46.8164a29.79245,29.79245,0,0,0-1.79492-11.14356,12.23961,12.23961,0,0,0-5.53418-6.43164,17.30709,17.30709,0,0,0-9.27344-1.71973,22.97806,22.97806,0,0,0-8.22656,1.4209,20.02131,20.02131,0,0,0-6.50684,3.96289,18.69173,18.69173,0,0,0-4.3374,5.90821,16.95025,16.95025,0,0,0-1.5708,7.25488v47.56445h-15.40576Z"/><path class="a40b9b67-aeca-4ed6-83fc-a0212453146c" d="M1539.663,3170.15611a55.19918,55.19918,0,0,1-16.67773-2.61817,39.62586,39.62586,0,0,1-13.38672-6.80566l5.68359-11.96582a33.632,33.632,0,0,0,7.03027,3.96386,47.41994,47.41994,0,0,0,8.52539,2.69239,41.63405,41.63405,0,0,0,8.8252.97265,31.34554,31.34554,0,0,0,13.76074-2.69238,18.46306,18.46306,0,0,0,8.376-7.92773,27.03754,27.03754,0,0,0,2.8418-13.0127v-15.10742l1.6455,1.04687a16.75408,16.75408,0,0,1-4.86133,8.90039,31.80821,31.80821,0,0,1-10.2456,6.95508,30.97294,30.97294,0,0,1-12.56445,2.69239,37.70973,37.70973,0,0,1-19.96778-5.31055,38.30057,38.30057,0,0,1-13.83593-14.50879,42.69464,42.69464,0,0,1-5.08545-21.01465,43.21209,43.21209,0,0,1,5.01074-21.01562,37.77691,37.77691,0,0,1,13.76074-14.50879,37.17874,37.17874,0,0,1,19.66895-5.30957,33.67154,33.67154,0,0,1,16.45312,4.26269,41.83958,41.83958,0,0,1,6.43213,4.41309,24.43792,24.43792,0,0,1,4.63672,5.085,13.99383,13.99383,0,0,1,2.24365,5.08594l-3.291,1.19629v-18.39747h15.40625v73.74024a46.61413,46.61413,0,0,1-2.76709,16.67773,33.01244,33.01244,0,0,1-8.002,12.26465,34.69251,34.69251,0,0,1-12.71387,7.62793A51.00193,51.00193,0,0,1,1539.663,3170.15611Zm.59814-47.11622a24.62479,24.62479,0,0,0,13.0127-3.44043,23.62826,23.62826,0,0,0,8.82519-9.42285,31.54077,31.54077,0,0,0-.0747-27.59668,23.74592,23.74592,0,0,0-21.76319-12.9375,23.5885,23.5885,0,0,0-12.78857,3.51465,24.76611,24.76611,0,0,0-8.82471,9.57227,30.73074,30.73074,0,0,0,0,27.37207,24.19544,24.19544,0,0,0,8.82471,9.498A23.94925,23.94925,0,0,0,1540.26112,3123.03989Z"/><path class="a40b9b67-aeca-4ed6-83fc-a0212453146c" d="M1638.22987,3137.24986a43.672,43.672,0,0,1-21.46386-5.16114,38.03053,38.03053,0,0,1-14.65821-14.13476,39.75084,39.75084,0,0,1-5.31005-20.64063,45.90136,45.90136,0,0,1,2.99169-16.90234,40.541,40.541,0,0,1,8.30127-13.23731,36.50537,36.50537,0,0,1,12.71387-8.6748,41.6291,41.6291,0,0,1,16.0791-3.06641,34.68,34.68,0,0,1,14.20948,2.917,35.6661,35.6661,0,0,1,11.44238,8.002,35.12962,35.12962,0,0,1,7.479,12.041,40.71011,40.71011,0,0,1,2.46778,15.18164l-.14942,6.58106h-64.16748l-3.44043-12.26465h54.29541l-2.24316,2.542v-3.58984a17.34992,17.34992,0,0,0-3.291-8.82422,20.39945,20.39945,0,0,0-16.60254-8.376,27.76989,27.76989,0,0,0-13.61133,3.06543,19.768,19.768,0,0,0-8.376,8.97461,33.49887,33.49887,0,0,0-2.8418,14.584,28.43019,28.43019,0,0,0,3.43994,14.28418,23.43073,23.43073,0,0,0,9.72217,9.34863,30.81147,30.81147,0,0,0,14.50879,3.29,29.71164,29.71164,0,0,0,10.84424-1.94434,38.06928,38.06928,0,0,0,10.84424-7.03027l7.77783,10.91894a35.42485,35.42485,0,0,1-8.75,6.28223,54.6,54.6,0,0,1-10.91895,4.2627A42.78694,42.78694,0,0,1,1638.22987,3137.24986Z"/><path class="a40b9b67-aeca-4ed6-83fc-a0212453146c" d="M1689.23476,3135.75376v-78.52637h15.55566v24.67969l-1.49609-5.9834a27.49668,27.49668,0,0,1,5.60937-10.32031,30.50525,30.50525,0,0,1,9.124-7.3291,22.83375,22.83375,0,0,1,10.69433-2.69238,25.509,25.509,0,0,1,4.86133.44922,17.56353,17.56353,0,0,1,3.66455,1.04687l-4.03857,16.75195a26.74819,26.74819,0,0,0-3.96387-1.27148,18.2047,18.2047,0,0,0-4.2627-.52344,19.35284,19.35284,0,0,0-7.70312,1.57031,20.33457,20.33457,0,0,0-6.43164,4.33789,21.4028,21.4028,0,0,0-4.4126,6.43165,19.29783,19.29783,0,0,0-1.645,8.002v43.37695Z"/><path class="a40b9b67-aeca-4ed6-83fc-a0212453146c" d="M1826.69325,3137.24986a39.85667,39.85667,0,0,1-20.5664-5.31055,38.70313,38.70313,0,0,1-14.28418-14.50879,44.79593,44.79593,0,0,1,0-42.03027,38.73121,38.73121,0,0,1,14.28418-14.50879,42.19705,42.19705,0,0,1,40.9834,0,38.77065,38.77065,0,0,1,14.28417,14.50879,44.79956,44.79956,0,0,1,0,42.03027,38.74251,38.74251,0,0,1-14.28417,14.50879A39.58324,39.58324,0,0,1,1826.69325,3137.24986Zm0-14.06055a22.93135,22.93135,0,0,0,12.564-3.51465,24.40744,24.40744,0,0,0,8.67578-9.57324,28.08041,28.08041,0,0,0,2.99121-13.68555,28.42888,28.42888,0,0,0-2.99121-13.83594,23.88662,23.88662,0,0,0-8.67578-9.498,24.57456,24.57456,0,0,0-25.20313.07519,24.223,24.223,0,0,0-8.75,9.57227,32.80527,32.80527,0,0,0,0,27.37207,24.20616,24.20616,0,0,0,8.75,9.57324A23.30014,23.30014,0,0,0,1826.69325,3123.18931Z"/><path class="a40b9b67-aeca-4ed6-83fc-a0212453146c" d="M1876.35194,3072.78306v-14.21h46.667v14.21Zm12.564,62.9707V3048.4022a23.67356,23.67356,0,0,1,2.9917-11.96582,21.72762,21.72762,0,0,1,8.22656-8.22656,23.99694,23.99694,0,0,1,12.11524-2.99121,22.55043,22.55043,0,0,1,8.9746,1.79492,17.93892,17.93892,0,0,1,6.73145,4.78613l-5.23584,11.81641a17.53208,17.53208,0,0,0-4.2627-2.917,10.16153,10.16153,0,0,0-4.41259-1.12109,12.95908,12.95908,0,0,0-5.30957.97168,6.488,6.488,0,0,0-3.21582,2.99121,10.44491,10.44491,0,0,0-1.04737,4.86133v87.35156h-15.55566Z"/><path class="a40b9b67-aeca-4ed6-83fc-a0212453146c" d="M1974.47108,3072.18443v-14.957h49.957v14.957Zm16.30274,63.56933v-98.56933h15.40625v98.56933Z"/><path class="a40b9b67-aeca-4ed6-83fc-a0212453146c" d="M2038.48671,3135.75376V3025.06919H2053.893v48.3125l-2.69238,1.79492a22.54225,22.54225,0,0,1,5.833-9.64746,34.801,34.801,0,0,1,10.32032-7.17969,28.92512,28.92512,0,0,1,12.26562-2.76757q8.97363,0,14.957,3.51562a21.54614,21.54614,0,0,1,8.97461,10.69434q2.98976,7.1792,2.99121,18.09863v47.86328h-15.40625v-46.8164a29.80383,29.80383,0,0,0-1.79394-11.14356,12.23914,12.23914,0,0,0-5.53516-6.43164,17.30425,17.30425,0,0,0-9.27344-1.71973,22.98,22.98,0,0,0-8.22656,1.4209,20.01673,20.01673,0,0,0-6.50586,3.96289,18.68574,18.68574,0,0,0-4.33789,5.90821,16.94989,16.94989,0,0,0-1.57031,7.25488v47.56445h-15.40625Z"/><path class="a40b9b67-aeca-4ed6-83fc-a0212453146c" d="M2164.12636,3137.24986a43.672,43.672,0,0,1-21.46387-5.16114,38.02706,38.02706,0,0,1-14.6582-14.13476,39.75049,39.75049,0,0,1-5.30957-20.64063,45.90112,45.90112,0,0,1,2.99121-16.90234,40.54758,40.54758,0,0,1,8.30078-13.23731,36.51875,36.51875,0,0,1,12.71387-8.6748,41.63083,41.63083,0,0,1,16.0791-3.06641,34.6789,34.6789,0,0,1,14.21,2.917,35.66064,35.66064,0,0,1,11.44238,8.002,35.11383,35.11383,0,0,1,7.47852,12.041,40.68066,40.68066,0,0,1,2.46777,15.18164l-.14941,6.58106h-64.167l-3.44043-12.26465h54.29589l-2.24414,2.542v-3.58984a17.34868,17.34868,0,0,0-3.29-8.82422,20.40125,20.40125,0,0,0-16.60351-8.376,27.76721,27.76721,0,0,0-13.61035,3.06543,19.77265,19.77265,0,0,0-8.377,8.97461,33.513,33.513,0,0,0-2.84179,14.584,28.43023,28.43023,0,0,0,3.44043,14.28418,23.4291,23.4291,0,0,0,9.72265,9.34863,30.8073,30.8073,0,0,0,14.50879,3.29,29.709,29.709,0,0,0,10.84375-1.94434,38.06087,38.06087,0,0,0,10.84375-7.03027l7.77832,10.91894a35.42466,35.42466,0,0,1-8.75,6.28223,54.61165,54.61165,0,0,1-10.91894,4.2627A42.78976,42.78976,0,0,1,2164.12636,3137.24986Z"/><path class="a40b9b67-aeca-4ed6-83fc-a0212453146c" d="M2260.90077,3135.75376V3031.05161h16.1543v104.70215Zm7.17969-89.14648v-15.55567H2328.807v15.55567Zm0,44.57324v-15.55566h53.99609v15.55566Z"/><path class="a40b9b67-aeca-4ed6-83fc-a0212453146c" d="M2380.10976,3137.24986a39.8567,39.8567,0,0,1-20.56641-5.31055,38.70679,38.70679,0,0,1-14.28418-14.50879,44.80334,44.80334,0,0,1,0-42.03027,38.73487,38.73487,0,0,1,14.28418-14.50879,42.19705,42.19705,0,0,1,40.9834,0,38.76348,38.76348,0,0,1,14.28418,14.50879,44.79593,44.79593,0,0,1,0,42.03027,38.73535,38.73535,0,0,1-14.28418,14.50879A39.58068,39.58068,0,0,1,2380.10976,3137.24986Zm0-14.06055a22.933,22.933,0,0,0,12.56445-3.51465,24.40744,24.40744,0,0,0,8.67578-9.57324,28.07492,28.07492,0,0,0,2.99121-13.68555,28.42336,28.42336,0,0,0-2.99121-13.83594,23.88662,23.88662,0,0,0-8.67578-9.498,24.57455,24.57455,0,0,0-25.20313.07519,24.2195,24.2195,0,0,0-8.75,9.57227,32.80527,32.80527,0,0,0,0,27.37207,24.20266,24.20266,0,0,0,8.75,9.57324A23.2997,23.2997,0,0,0,2380.10976,3123.18931Z"/><path class="a40b9b67-aeca-4ed6-83fc-a0212453146c" d="M2436.79726,3135.75376v-78.52637h15.55566v24.67969l-1.49609-5.9834a27.50353,27.50353,0,0,1,5.60937-10.32031,30.50525,30.50525,0,0,1,9.124-7.3291,22.8352,22.8352,0,0,1,10.69433-2.69238,25.50534,25.50534,0,0,1,4.86133.44922,17.5578,17.5578,0,0,1,3.66406,1.04687l-4.03808,16.75195a26.72957,26.72957,0,0,0-3.96387-1.27148,18.20157,18.20157,0,0,0-4.2627-.52344,19.35284,19.35284,0,0,0-7.70312,1.57031,20.33457,20.33457,0,0,0-6.43164,4.33789,21.3836,21.3836,0,0,0-4.41211,6.43165,19.29033,19.29033,0,0,0-1.64551,8.002v43.37695Z"/><path class="a40b9b67-aeca-4ed6-83fc-a0212453146c" d="M2530.432,3137.24986a43.67191,43.67191,0,0,1-21.46386-5.16114A38.02716,38.02716,0,0,1,2494.31,3117.954a39.75058,39.75058,0,0,1-5.30957-20.64063,45.90133,45.90133,0,0,1,2.99121-16.90234,40.54775,40.54775,0,0,1,8.30078-13.23731,36.51884,36.51884,0,0,1,12.71387-8.6748,41.63083,41.63083,0,0,1,16.0791-3.06641,34.6789,34.6789,0,0,1,14.21,2.917,35.66068,35.66068,0,0,1,11.44239,8.002,35.114,35.114,0,0,1,7.47851,12.041,40.68066,40.68066,0,0,1,2.46778,15.18164l-.14942,6.58106h-64.167l-3.44043-12.26465h54.2959l-2.24414,2.542v-3.58984a17.34877,17.34877,0,0,0-3.29-8.82422,20.40128,20.40128,0,0,0-16.60352-8.376,27.76721,27.76721,0,0,0-13.61035,3.06543,19.77258,19.77258,0,0,0-8.377,8.97461,33.513,33.513,0,0,0-2.8418,14.584,28.43033,28.43033,0,0,0,3.44043,14.28418,23.42906,23.42906,0,0,0,9.72266,9.34863,30.80727,30.80727,0,0,0,14.50879,3.29,29.709,29.709,0,0,0,10.84375-1.94434,38.06114,38.06114,0,0,0,10.84375-7.03027l7.77832,10.91894a35.42485,35.42485,0,0,1-8.75,6.28223,54.61151,54.61151,0,0,1-10.91895,4.2627A42.78971,42.78971,0,0,1,2530.432,3137.24986Z"/><path class="a40b9b67-aeca-4ed6-83fc-a0212453146c" d="M2607.61171,3137.24986a44.28,44.28,0,0,1-17.79883-3.44043,33.06322,33.06322,0,0,1-13.16211-10.1709l10.46973-8.97461a27.48207,27.48207,0,0,0,9.79687,7.55371,29.78725,29.78725,0,0,0,12.041,2.31836,17.89148,17.89148,0,0,0,5.01074-.67383,11.82364,11.82364,0,0,0,4.03809-2.01855,9.0004,9.0004,0,0,0,2.61816-3.21583,9.39045,9.39045,0,0,0,.89746-4.11328,7.822,7.822,0,0,0-2.84179-6.28222,24.3731,24.3731,0,0,0-4.71192-2.31836,76.8334,76.8334,0,0,0-8.30176-2.61817,69.69126,69.69126,0,0,1-14.209-5.085,26.9,26.9,0,0,1-8.52637-6.43164,19.08094,19.08094,0,0,1-3.29-6.207,24.79792,24.79792,0,0,1-1.04687-7.4043,19.09135,19.09135,0,0,1,2.16894-9.0498,22.80647,22.80647,0,0,1,5.98243-7.17871,27.5434,27.5434,0,0,1,8.9746-4.71192,36.01718,36.01718,0,0,1,10.99317-1.6455,41.49746,41.49746,0,0,1,10.99414,1.49609,38.96051,38.96051,0,0,1,10.09668,4.33789,30.12991,30.12991,0,0,1,7.77734,6.73047l-8.82519,9.72266a37.47546,37.47546,0,0,0-6.207-5.01075,32.1324,32.1324,0,0,0-6.80567-3.36621,19.318,19.318,0,0,0-6.28222-1.19629,24.93532,24.93532,0,0,0-5.6836.59864,12.36208,12.36208,0,0,0-4.26269,1.79492,7.92085,7.92085,0,0,0-2.61719,2.99121,8.90031,8.90031,0,0,0-.89746,4.03809,10.17425,10.17425,0,0,0,.97168,3.665,8.20708,8.20708,0,0,0,2.31836,2.917,24.35755,24.35755,0,0,0,4.93652,2.542,56.965,56.965,0,0,0,8.376,2.543,70.30732,70.30732,0,0,1,12.33984,4.26269,25.9131,25.9131,0,0,1,7.70313,5.31055,15.52522,15.52522,0,0,1,4.1875,6.58105,27.44151,27.44151,0,0,1,1.19726,8.376,20.12582,20.12582,0,0,1-3.81445,12.041,25.62883,25.62883,0,0,1-10.2461,8.30078A33.6488,33.6488,0,0,1,2607.61171,3137.24986Z"/><path class="a40b9b67-aeca-4ed6-83fc-a0212453146c" d="M2646.49941,3072.18443v-14.957h49.957v14.957Zm16.30273,63.56933v-98.56933h15.40625v98.56933Z"/><path class="a40b9b67-aeca-4ed6-83fc-a0212453146c" d="M1468.10242,975.57755c40.89822-24.58379,82.63387-47.75548,123.24907-72.79587,14.09776-8.69249,24.65374-8.46138,38.60738.30467,33.41659,20.9911,69.47537,37.94894,101.5909,60.6985,26.52525,18.79006,47.887,18.4409,72.61948-1.21607,14.59806-11.60288,32.0109-19.57539,49.5903-30.03195-4.92181-3.39546-7.07113-5.09038-9.40726-6.45979-74.74133-43.79758-149.39187-87.75772-224.50182-130.89726-4.98414-2.86289-14.72093-1.6863-20.15286,1.39526-45.78855,25.97906-91.088,52.84105-136.536,79.43545-31.08647,18.19055-62.17474,36.37689-96.04271,56.192,26.45389,15.46075,50.75847,28.86419,74.16407,43.721C1451.23518,982.24118,1458.48991,981.35523,1468.10242,975.57755Z"/><path class="a40b9b67-aeca-4ed6-83fc-a0212453146c" d="M1491.0893,815.23462c35.06721-21.41623,71.00353-41.37025,106.16054-62.64076,9.66843-5.84985,17.01416-5.95187,26.751-.0431,35.58915,21.59723,71.6736,42.362,107.7412,63.13986,4.44276,2.55962,11.39723,6.16755,14.658,4.42813,23.37133-12.46858,46.088-26.19653,69.79327-39.9776-3.113-2.86028-4.15091-4.20924-5.50589-5.002-63.32326-37.05177-126.52325-74.32643-190.29189-110.57543-5.43995-3.09219-15.97569-1.67588-21.95943,1.66225-36.34621,20.27613-72.05243,41.72864-107.98574,62.766-27.72569,16.23245-55.47082,32.43142-85.81766,50.171,21.70907,12.86786,41.11489,23.77922,59.87028,35.73728C1473.86267,820.86779,1481.18455,821.28351,1491.0893,815.23462Z"/><path class="a40b9b67-aeca-4ed6-83fc-a0212453146c" d="M1507.42678,672.04617c30.26627-18.48419,61.282-35.70641,91.625-54.06453,8.34492-5.04849,14.68505-5.13688,23.0883-.03708,30.71666,18.64054,61.86045,36.56169,92.98961,54.49528,3.83442,2.20845,9.837,5.32288,12.651,3.82119,20.1711-10.76124,39.778-22.60925,60.23709-34.50317-2.6863-2.46943-3.58227-3.63358-4.75144-4.31749-54.65322-31.97862-109.20021-64.14987-164.23787-95.43558-4.69491-2.66886-13.78788-1.44658-18.95262,1.43475-31.36949,17.49983-62.187,36.01549-93.20008,54.17217-23.93,14.00956-47.87614,27.99087-74.06766,43.30129,18.73635,11.10619,35.48533,20.52327,51.67268,30.84454C1492.55893,676.90745,1498.87881,677.26643,1507.42678,672.04617Z"/><path class="a40b9b67-aeca-4ed6-83fc-a0212453146c" d="M2014.41,942.6807c5.628,3.52835,9.73057,3.03346,15.16631-.19322,23.12759-13.72955,46.729-26.67057,69.69645-40.65528,7.97231-4.85446,13.94162-4.72538,21.83235.17017,18.8967,11.72314,39.28788,21.19374,57.449,33.899,14.99994,10.494,27.07987,10.299,41.06578-.67909,8.25533-6.48,18.10216-10.93261,28.04319-16.77243-2.78331-1.89616-3.99878-2.84284-5.31988-3.60752-42.26582-24.46032-84.48013-49.01123-126.9544-73.10394-2.81839-1.59892-8.32448-.94187-11.39623.77931-25.89306,14.50866-51.50972,29.51081-77.21016,44.36322-17.5792,10.15911-35.15941,20.31582-54.31167,31.38232C1987.4301,926.89784,2001.17428,934.38328,2014.41,942.6807Z"/><path class="a40b9b67-aeca-4ed6-83fc-a0212453146c" d="M2027.54079,852.752c5.29282,3.33272,9.43331,3.565,15.03441.18681,19.83035-11.96066,40.152-23.10474,60.033-34.98382,5.46741-3.26718,9.62153-3.3241,15.12762-.02426,20.1254,12.06169,40.53081,23.65856,60.9268,35.26264,2.51232,1.42954,6.44515,3.44457,8.289,2.473,13.21643-6.96349,26.06264-14.63033,39.46768-22.32683a27.70238,27.70238,0,0,0-3.11344-2.79353c-35.80884-20.69265-71.54812-41.51-107.60892-61.75442-3.07635-1.72679-9.034-.93585-12.41787.92824-20.55353,11.32387-40.74528,23.305-61.0653,35.054-15.67863,9.06551-31.36849,18.11238-48.52937,28.01953C2005.9608,839.97976,2016.93469,846.07355,2027.54079,852.752Z"/><path class="a40b9b67-aeca-4ed6-83fc-a0212453146c" d="M2051.81389,772.97041c17.11539-10.32307,34.65451-19.9414,51.81339-30.19391,4.719-2.81959,8.30423-2.8689,13.05627-.02085,17.37015,10.41047,34.98182,20.41905,52.58508,30.43464,2.16836,1.23351,5.56282,2.97273,7.15391,2.13409,11.40685-6.01,22.4942-12.62693,34.06381-19.26952a23.86362,23.86362,0,0,0-2.6869-2.4111c-30.90608-17.85942-61.752-35.82667-92.87556-53.299-2.65483-1.49068-7.79693-.808-10.71754.80116-17.73936,9.77346-35.16623,20.114-52.70414,30.25424-13.53212,7.82418-27.07366,15.63253-41.88478,24.1831,10.59546,6.20242,20.06686,11.46177,29.22057,17.226C2043.40623,775.68537,2046.98008,775.886,2051.81389,772.97041Z"/><path class="a40b9b67-aeca-4ed6-83fc-a0212453146c" d="M2334.0974,964.15546c4.30506,2.69913,7.44315,2.3205,11.60108-.14772,17.69125-10.50227,35.7447-20.4012,53.31328-31.0985,6.09819-3.71355,10.66442-3.61473,16.70028.13009,14.45474,8.96749,30.05259,16.2118,43.9447,25.93054,11.4738,8.02723,20.71429,7.87811,31.41259-.51954,6.31466-4.95668,13.8468-8.36256,21.4511-12.82957-2.12907-1.45059-3.05871-2.17478-4.06933-2.75966-32.3304-18.71049-64.62172-37.49033-97.11167-55.9196-2.15593-1.22309-6.36778-.72039-8.71734.5959-19.8065,11.09838-39.40153,22.574-59.0607,33.93513-13.44693,7.77106-26.89466,15.54033-41.54484,24.00531C2313.45968,952.08275,2323.973,957.80872,2334.0974,964.15546Z"/><path class="a40b9b67-aeca-4ed6-83fc-a0212453146c" d="M2344.14166,895.3662c4.04849,2.54919,7.21585,2.72678,11.50026.14271,15.16891-9.14909,30.71365-17.67341,45.92124-26.76017,4.18239-2.49929,7.35977-2.54278,11.57162-.01864,15.3946,9.22646,31.00348,18.09734,46.60514,26.97364,1.92162,1.0934,4.93,2.63478,6.34053,1.89175,10.1096-5.3267,19.936-11.19117,30.1901-17.0785a21.14791,21.14791,0,0,0-2.38163-2.1369c-27.39136-15.82856-54.72959-31.75253-82.31377-47.23813-2.35317-1.32091-6.91037-.716-9.49886.71016-15.72213,8.662-31.16724,17.82654-46.71078,26.81388-11.99314,6.93443-23.99489,13.85463-37.12172,21.43307C2327.63441,885.59614,2336.02865,890.25758,2344.14166,895.3662Z"/><path class="a40b9b67-aeca-4ed6-83fc-a0212453146c" d="M2362.70884,834.33858c13.09215-7.89655,26.50841-15.2539,39.63384-23.09653,3.60972-2.15673,6.35215-2.19441,9.98733-.01583,13.28678,7.96329,26.75856,15.6191,40.22393,23.28052,1.65865.94348,4.25515,2.2738,5.47242,1.63239,8.72536-4.5973,17.20659-9.65881,26.05642-14.74a18.26256,18.26256,0,0,0-2.05531-1.84445c-23.64112-13.6612-47.23613-27.40478-71.04362-40.77013-2.03086-1.14011-5.96409-.618-8.1982.61294-13.5694,7.47582-26.89988,15.38579-40.31514,23.14242-10.35113,5.985-20.70948,11.95766-32.039,18.49843,8.1046,4.74442,15.34951,8.76765,22.35169,13.17693C2356.27751,836.41514,2359.01132,836.56867,2362.70884,834.33858Z"/><path class="a40b9b67-aeca-4ed6-83fc-a0212453146c" d="M1071.75983,958.48561c5.554,3.48205,9.60289,2.99357,14.96727-.19082,22.82412-13.54935,46.11547-26.3204,68.78165-40.12151,7.86767-4.79092,13.75861-4.66344,21.54571.168,18.64876,11.56921,38.77235,20.91553,56.69491,33.45407,14.80311,10.35614,26.72449,10.16372,40.5268-.67027,8.14689-6.39485,17.86443-10.7889,27.675-16.55215-2.74663-1.87151-3.94626-2.80556-5.24993-3.56042-41.711-24.139-83.37128-48.36782-125.28794-72.14424-2.7815-1.57786-8.21524-.92944-11.24669.76909-25.55332,14.31825-50.83364,29.12336-76.19694,43.78095-17.3483,10.02582-34.6978,20.04923-53.5987,30.97041C1045.13416,942.90981,1058.69794,950.29723,1071.75983,958.48561Z"/><path class="a40b9b67-aeca-4ed6-83fc-a0212453146c" d="M1084.71829,869.73731c5.22347,3.28883,9.30964,3.51813,14.83718.18421,19.57-11.80352,39.625-22.80127,59.24491-34.52462,5.39584-3.22408,9.49525-3.2804,14.92918-.02385,19.86122,11.90354,39.99884,23.34807,60.127,34.79982,2.47945,1.4107,6.36057,3.39927,8.18037,2.44056,13.04284-6.87209,25.72028-14.43831,38.94953-22.03379a27.32759,27.32759,0,0,0-3.07254-2.75685c-35.339-20.42105-70.60907-40.96516-106.19662-60.94384-3.03587-1.70434-8.91558-.92363-12.25471.91621-20.284,11.17514-40.21051,22.99871-60.26374,34.59357-15.473,8.94665-30.95679,17.87466-47.89258,27.65193C1063.42152,857.13263,1074.2515,863.14644,1084.71829,869.73731Z"/><path class="a40b9b67-aeca-4ed6-83fc-a0212453146c" d="M1108.67289,791.003c16.8907-10.18757,34.19971-19.67982,51.13329-29.79784,4.657-2.78251,8.1952-2.83122,12.8849-.02044,17.142,10.27376,34.52261,20.15105,51.89476,30.03515,2.1399,1.21728,5.48986,2.93365,7.06011,2.106,11.25692-5.931,22.19895-12.46117,33.61662-19.01656a23.53774,23.53774,0,0,0-2.65162-2.37963c-30.50038-17.6249-60.94143-35.35624-91.65648-52.59931-2.62-1.471-7.6945-.79735-10.57683.79074-17.50645,9.645-34.70482,19.85-52.01222,29.857-13.35473,7.72156-26.71848,15.42728-41.33518,23.86562,10.45636,6.12124,19.80329,11.31164,28.83713,17.00013C1100.37547,793.68229,1103.90242,793.88013,1108.67289,791.003Z"/><path class="a40b9b67-aeca-4ed6-83fc-a0212453146c" d="M774.91113,990.75207c3.49066,2.18821,6.03505,1.88133,9.40646-.11986,14.3441-8.5153,28.98184-16.54153,43.22673-25.215,4.94445-3.01081,8.64678-2.93083,13.54073.10564,11.71994,7.27076,24.36691,13.14466,35.63045,21.02457,9.30323,6.50849,16.79548,6.38762,25.46973-.42113,5.12-4.019,11.22706-6.78049,17.3926-10.40244-1.72619-1.17619-2.48005-1.76328-3.29925-2.23752-26.214-15.17071-52.39586-30.39755-78.73891-45.34017-1.748-.99157-5.16294-.58408-7.06813.48347-16.05926,8.99856-31.94715,18.303-47.887,27.51462-10.90274,6.30084-21.80629,12.60027-33.68477,19.46374C758.178,980.96317,766.7023,985.606,774.91113,990.75207Z"/><path class="a40b9b67-aeca-4ed6-83fc-a0212453146c" d="M783.05521,934.977c3.28261,2.06694,5.85065,2.21106,9.32448.11586,12.299-7.41809,24.90289-14.32987,37.23337-21.69745,3.39084-2.02625,5.9673-2.06153,9.3822-.015,12.482,7.48083,25.138,14.67342,37.78779,21.87043,1.55822.88654,3.99738,2.13629,5.14089,1.53376,8.197-4.31888,16.16429-9.07392,24.47835-13.84741a17.16394,17.16394,0,0,0-1.931-1.7326c-22.20917-12.83378-44.37505-25.74494-66.74036-38.30091-1.908-1.071-5.60311-.58048-7.70172.57586-12.74779,7.02323-25.27089,14.45394-37.87357,21.74075-9.72416,5.62254-19.45513,11.23367-30.0987,17.37816C769.671,927.05559,776.47717,930.83509,783.05521,934.977Z"/><path class="a40b9b67-aeca-4ed6-83fc-a0212453146c" d="M798.10967,885.49552c10.61512-6.40266,21.49321-12.368,32.13538-18.72693,2.92682-1.74864,5.15031-1.7793,8.09758-.01282,10.77326,6.45678,21.69625,12.66421,32.614,18.876,1.34475.76488,3.45018,1.84365,4.437,1.32351,7.07473-3.72739,13.95123-7.8314,21.12679-11.95125a14.80316,14.80316,0,0,0-1.66646-1.49548c-19.16829-11.07653-38.29931-22.22-57.6025-33.0568-1.64661-.92443-4.83582-.5009-6.6472.49709-11.00216,6.06151-21.81069,12.475-32.68778,18.764-8.39283,4.85266-16.79147,9.69549-25.97765,14.99874,6.57143,3.84685,12.44573,7.10881,18.123,10.68386C792.895,887.17922,795.11169,887.30369,798.10967,885.49552Z"/><path class="a40b9b67-aeca-4ed6-83fc-a0212453146c" d="M2703.14927,100.25388q-30.49206-30.34444-98.48749-30.41H2042.50465q-68.0283,0-98.45482,30.41a84.78086,84.78086,0,0,0-14.25249,19.76981q288.31967,43.05336,576.67241,166.26954a76.2934,76.2934,0,0,1,45.91042,71.2629c-2.03607,134.21755-.78813,268.468-.78813,427.48-5.091,98.56787,4.07254,210.10661-.97735,324.76581-19.36252-2.57445-63.03583-7.36417-124.93837-8.35615q.0033-42.566.02285-85.13216c.0022-2.43174.287-4.86348.51513-8.48162,3.64981,1.86129,6.16754,3.01221,8.55719,4.386,14.13685,8.128,28.19953,16.38659,42.41114,24.38094,2.02364,1.1383,5.36939,2.27239,7.00438,1.38464,13.01939-7.06972,25.7734-14.62792,39.23577-22.39818a40.74317,40.74317,0,0,0-3.385-2.5502c-35.80282-20.69505-71.65856-41.2995-107.375-62.14308-3.9607-2.31147-6.73038-1.5961-10.29842.47645q-52.136,30.2807-104.40327,60.3355c-1.75706,1.01523-3.33332,2.34335-5.5562,3.92622,13.13424,7.59589,25.52465,14.941,38.15138,21.8546,1.72439.94407,5.02924.458,6.9206-.5925,13.43189-7.46159,26.673-15.26593,40.00585-22.90671,3.58989-2.05732,7.2866-3.927,11.30563-6.08215v93.43138c-38.21973.3678-81.702,2.25876-129.5058,6.751-37.69478,3.54238-79.78321,8.96389-125.15185,17.01116q.00422-57.11493.03067-114.23006c.00281-3.179.37523-6.35816.67328-11.08815,4.77148,2.43335,8.06291,3.938,11.187,5.734,18.48118,10.62573,36.86516,21.42224,55.44416,31.87339,2.64561,1.48807,7.01941,2.97053,9.15691,1.81,17.02017-9.2421,33.69339-19.1232,51.293-29.28131a53.31454,53.31454,0,0,0-4.42532-3.33372c-46.80519-27.05461-93.67953-53.991-140.37166-81.23981-5.17778-3.02183-8.79873-2.08658-13.46317.62277q-68.15729,39.58614-136.48673,78.87682c-2.297,1.32711-4.35757,3.06333-7.26376,5.13267,17.17071,9.93041,33.36868,19.5325,49.87573,28.57075,2.25415,1.23411,6.57444.59871,9.04727-.77471,17.55936-9.75442,34.86938-19.957,52.29966-29.946,4.6929-2.68951,9.52572-5.13387,14.78-7.95126V1134.425c-129.30315,27.15543-280.514,76.08528-432.91831,163.09q0-99.78614.06414-199.51254c0-5.68148.65684-11.36275,1.18219-19.83556,8.43994,4.36779,14.2527,7.0607,19.76982,10.2463,32.70883,19.04723,65.22043,38.35724,98.06055,57.07594,4.66324,2.66,12.41366,5.32029,16.19015,3.25134,30.11454-16.55155,59.572-34.25242,90.70439-52.44577-3.67807-2.8242-5.58266-4.66324-7.816-5.94406-82.78981-48.43917-165.67824-96.68131-248.23835-145.48168-9.16232-5.4187-15.56618-3.74382-23.80908,1.11645q-120.53982,70.88547-241.342,141.24538c-4.07214,2.3646-7.71754,5.48445-12.87347,9.1952,30.37711,17.76661,59.0138,34.9748,88.20871,51.13209,4.0064,2.2331,11.62533,1.08378,15.99313-1.37923,31.06662-17.471,61.67364-35.73007,92.51056-53.628,8.27577-4.79453,16.847-9.16232,26.10793-14.21963V1296.915q-49.16156-24.18691-99.96533-46.009a2213.81658,2213.81658,0,0,0-232.08107-84.53044c-6.69951-2.03607-13.39882-4.03947-20.03259-5.97692-.06554,0-.13129-.03288-.197-.03288q-12.84842-3.764-25.52085-7.312.009-63.63865.03408-127.27671c.0028-3.13729.37021-6.27478.66446-10.94263,4.70874,2.40147,7.95727,3.88633,11.04,5.65862,18.23866,10.48623,36.3815,21.141,54.71656,31.45508,2.61074,1.46843,6.92722,2.93164,9.03665,1.78632,16.79689-9.121,33.25122-18.87224,50.61976-28.89706a52.59359,52.59359,0,0,0-4.36719-3.28982c-46.19084-26.69964-92.44982-53.28241-138.529-80.17367-5.11-2.98215-8.68327-2.05912-13.28657.61475q-67.26282,39.0663-134.6952,77.84135c-2.267,1.30987-4.30045,3.02324-7.16835,5.06532,16.94522,9.79992,32.93052,19.27613,49.2209,28.19572,2.22468,1.21787,6.48824.5909,8.9284-.76468,17.32906-9.62614,34.412-19.69485,51.61315-29.5527,4.63157-2.65423,9.40084-5.06653,14.58623-7.84683v125.34386a2272.74476,2272.74476,0,0,0-293.15058-55.26717q.00182-25.98064.014-51.96131c.00181-1.97173.23272-3.94346.41752-6.8769,2.9593,1.50911,5.00078,2.44236,6.93824,3.55621,11.46237,6.59007,22.86441,13.28638,34.38731,19.76821,1.64081.923,4.35357,1.84245,5.67928,1.12267,10.55618-5.73219,20.89709-11.86045,31.81266-18.16068a33.01893,33.01893,0,0,0-2.74463-2.06755c-29.02915-16.77964-58.10139-33.48593-87.06039-50.38625-3.21145-1.87411-5.45718-1.294-8.34994.38645q-42.27222,24.55162-84.65109,48.92043c-1.42453.82321-2.70254,1.9-4.5051,3.1834,10.64959,6.15892,20.69585,12.1142,30.93353,17.71991,1.39827.76528,4.07776.37121,5.61133-.48046,10.89071-6.04988,21.62649-12.37758,32.43683-18.573,2.91079-1.66807,5.90817-3.184,9.16693-4.93143v55.40788c-64.97489-6.838-110.49906-8.43433-129.435-8.817-4.69611-239.24038-.03287-478.71048-2.10181-718.04928-.3612-39.90082,16.97828-55.99236,49.65424-69.91654q293.54154-124.924,586.91871-166.72915a87.52027,87.52027,0,0,0-15.79609-17.86523q-35.86155-30.34444-103.84044-30.41H635.33822q-68.0773,0-98.45462,30.41-30.49206,30.49236-30.44285,98.48748v945.27008q0,85.90975,5.38583,145.02188a672.77563,672.77563,0,0,0,19.6712,112.77305q14.28556,53.69341,35.79581,112.80573c.16416.36119.29545.78813.45981,1.1822,31.78921,87.25622,82.95417,166.23666,148.7657,231.78561l820.64178,817.719,12.2493,12.21643c19.113,16.2559,43.546,26.43645,70.60626,26.43645,27.02735,0,51.46041-10.18055,70.57338-26.43645l12.2493-12.18356,821.9226-818.99978a632.79739,632.79739,0,0,0,147.94469-231.71987q21.47738-59.11221,35.79581-112.80573a676.12267,676.12267,0,0,0,19.70407-112.77305q5.36919-59.11222,5.353-145.02188V198.74136Q2733.55925,130.76238,2703.14927,100.25388ZM1066.4634,1877.13422q-118.27374-99.55492-200.1277-218.22263-21.82223-36.94513-42.69215-75.92634c127.51824,40.45905,359.17236,278.48417,463.9651,459.76167C1211.61676,1990.53105,1137.00391,1936.50922,1066.4634,1877.13422Zm501.20588,321.24207c-3.84224-.06574-7.68468-.16436-11.52692-.26277-4.95889-.13129-10.50887-10.44314-14.61389-17.60226-168.99512-296.48069-382.4559-488.43123-616.93443-630.6289-20.52447-12.45716-89.35322-45.362-159.01621-77.61224q-18.11026-44.514-31.9239-91.06278c358.27539,133.09368,722.86465,395.28166,973.15892,817.53015Zm295.00284-96.05735c-290.89783-423.24347-640.251-663.79734-1029.76763-778.77063-14.21763-4.19842-66.37918-19.43829-122.1244-35.268q-4.96269-24.95961-8.71073-50.47745,207.7304,23.54621,401.76611,95.46625a1608.87391,1608.87391,0,0,1,298.97637,147.64905c202.29525,127.74814,390.96158,307.64621,564.5546,549.21812Q1915.24909,2066.49026,1862.67212,2102.31894Zm264.29722-186.9261c-3.25114,2.43034-6.53515,4.86048-9.78629,7.25774-47.12569-57.14189-95.89319-110.0144-145.449-160.75242q-198.32123-203.09963-421.37156-340.02652c-166.411-102.0924-337.54888-176.99269-514.42371-213.64258-.11986-.03046-.22469-.05973-.34495-.09039-115.41566-29.34124-272.847-41.08182-341.89363-45.0323-.87933-10.94283-1.64421-21.92635-2.17237-33.01931-.39406-7.02763-.65684-14.05547-.88674-21.14885,23.28373.49249,84.72746,2.82421,171.95081,14.08834a2252.55646,2252.55646,0,0,1,363.80294,78.29074c182.55811,55.43413,414.672,152.37823,638.74031,320.78245q173.248,141.82,338.02332,331.12678Q2166.95205,1885.54119,2126.96934,1915.39284Zm103.93906-87.81444q-31.18179-39.30954-64.4323-76.81309c83.67656-83.21675,171.19535-145.28466,267.54835-195.69416Q2356.83384,1706.64482,2230.9084,1827.5784Zm246.071-368.63034c-120.95021,49.32592-237.17144,119.40662-348.33516,208.40347-8.80113,7.02783-17.044,12.57782-24.89287,15.92737q-33.59549-34.43282-68.96425-67.09233c151.5901-108.47081,305.87292-183.67477,467.44634-229.88084Q2490.805,1423.34949,2476.97938,1458.94806Zm58.38963-207.58227q-4.187,22.61027-9.16232,44.72823c-198.48569,26.07506-388.30154,107.87971-572.17333,225.6772a93.885,93.885,0,0,1-17.83236,9.26094q-42.90543-34.62975-88.01148-66.82956c226.4984-135.56411,454.67149-205.84184,689.6425-226.79386C2537.04389,1242.072,2536.22289,1246.70235,2535.369,1251.36579Zm10.673-76.0907c-11.00136-.2299-22.00292-.36119-32.97141-.55822-116.58242-1.90478-218.81373,3.087-343.60618,32.64309-35.04857,8.301-67.119,15.50765-101.80437,26.27209-95.23634,29.55611-164.20059,59.11221-262.72095,111.65641-11.52571,6.14709-47.45341,27.00189-75.47615,40.517-2.82681-1.72178-5.62656-3.48124-8.46319-5.181q-37.65168-22.73985-76.57035-43.8962c230.74293-137.71263,461.36038-184.42742,616.60089-199.11988,149.46825-14.14186,258.57966-2.10162,287.91509,1.8244C2548.1581,1151.35316,2547.2475,1163.299,2546.04205,1175.27509Z"/></svg>