<svg id="a8a1bb8e-c0a5-4d26-8dcc-64683f9fd09a" data-name="Layer 1" xmlns="http://www.w3.org/2000/svg" viewBox="0 0 3240 3240"><defs><style>.b262742c-5fca-42b6-a3a4-1d7ff838b04f{fill:#2a805c;}</style></defs><path class="b262742c-5fca-42b6-a3a4-1d7ff838b04f" d="M1444.53735,1202.62525c47.24308-28.39767,95.45352-55.16416,142.36967-84.08927,16.28485-10.041,28.47847-9.77406,44.59685.35194,38.60076,24.24761,80.25363,43.83626,117.3515,70.11513,30.64032,21.70512,55.316,21.30178,83.88551-1.40473,16.86277-13.40292,36.977-22.61227,57.28364-34.691-5.68537-3.92222-8.16813-5.88009-10.86668-7.46195-86.33655-50.59224-172.56822-101.37227-259.33057-151.20438-5.75737-3.307-17.0047-1.94791-23.27932,1.61172-52.8921,30.00939-105.21925,61.03869-157.718,91.7589-35.90916,21.01259-71.8204,42.02032-110.94258,64.90951,30.55789,17.8593,58.633,33.34211,85.66972,50.5038C1425.05336,1210.32266,1433.43358,1209.29927,1444.53735,1202.62525Z"/><path class="b262742c-5fca-42b6-a3a4-1d7ff838b04f" d="M1471.09037,1017.40706c40.50746-24.7387,82.01887-47.78835,122.63006-72.35872,11.16837-6.75738,19.6537-6.87523,30.901-.04978,41.11038,24.94778,82.79289,48.934,124.456,72.93524,5.132,2.95672,13.16537,7.12437,16.932,5.1151,26.9971-14.40294,53.238-30.26061,80.62085-46.17964-3.596-3.304-4.79488-4.86225-6.36006-5.778-73.1471-42.7999-146.15181-85.85727-219.81338-127.72987-6.28389-3.57191-18.45412-1.93587-25.36616,1.92013-41.9849,23.42172-83.2305,48.20233-124.73843,72.50343-32.027,18.75071-64.07644,37.46276-99.13123,57.9544,25.077,14.86415,47.49337,27.46828,69.15843,41.28149C1451.19123,1023.91415,1459.649,1024.39435,1471.09037,1017.40706Z"/><path class="b262742c-5fca-42b6-a3a4-1d7ff838b04f" d="M1489.96241,852.00465c34.96171-21.35179,70.78914-41.24583,105.83953-62.452,9.63954-5.8317,16.96325-5.9338,26.67017-.04283,35.482,21.53239,71.45735,42.2338,107.41582,62.94956,4.42929,2.55106,11.3631,6.14867,14.61363,4.414,23.3004-12.43071,45.949-26.1168,69.58214-39.85592-3.103-2.85252-4.138-4.19729-5.48856-4.98729-63.132-36.93972-126.1413-74.10195-189.7174-110.24126-5.42326-3.0829-15.9269-1.671-21.89289,1.65734-36.23608,20.21472-71.83452,41.60286-107.65893,62.57632-27.6424,16.183-55.30355,32.33332-85.55836,50.019,21.64306,12.82919,40.99045,23.70721,59.68907,35.6297C1472.788,857.62009,1480.08832,858.03478,1489.96241,852.00465Z"/><path class="b262742c-5fca-42b6-a3a4-1d7ff838b04f" d="M2075.59788,1164.62485c6.50107,4.07573,11.24015,3.50407,17.51918-.2232,26.71555-15.85952,53.97846-30.80818,80.509-46.96245,9.20911-5.60757,16.10449-5.45846,25.21937.19657,21.82829,13.54185,45.38292,24.4817,66.36147,39.15807,17.327,12.12207,31.281,11.89679,47.43664-.78444,9.53605-7.48533,20.91049-12.62867,32.39375-19.37447-3.21511-2.19034-4.61915-3.28388-6.1452-4.16719-48.82285-28.255-97.58619-56.61473-146.64984-84.44513-3.25563-1.847-9.61592-1.088-13.16421.90021-29.91006,16.7595-59.50083,34.08905-89.18838,51.24564-20.30641,11.73517-40.614,23.46757-62.73747,36.25091C2044.43244,1146.39347,2060.30886,1155.04019,2075.59788,1164.62485Z"/><path class="b262742c-5fca-42b6-a3a4-1d7ff838b04f" d="M2090.76581,1060.74482c6.11394,3.84975,10.89678,4.1181,17.36682.21579,22.90679-13.81622,46.38107-26.68916,69.34644-40.41115,6.31561-3.774,11.11419-3.83979,17.47449-.028,23.24761,13.93291,46.81867,27.32889,70.37885,40.73321,2.90208,1.65131,7.445,3.97895,9.575,2.85669,15.26679-8.04379,30.10593-16.9,45.5906-25.79057-2.03335-1.84511-2.71152-2.71545-3.59645-3.22692-41.36415-23.90285-82.648-47.94972-124.30314-71.33486-3.55361-1.99469-10.43556-1.081-14.34435,1.07224-23.74217,13.08063-47.06642,26.92047-70.53885,40.49218-18.111,10.47192-36.23492,20.92229-56.05811,32.36643C2065.83794,1045.99111,2078.51431,1053.03027,2090.76581,1060.74482Z"/><path class="b262742c-5fca-42b6-a3a4-1d7ff838b04f" d="M2118.80459,968.58606c19.77063-11.92457,40.03073-23.03506,59.85161-34.87813,5.45105-3.257,9.59254-3.314,15.08179-.02408,20.06492,12.02552,40.40883,23.58681,60.743,35.15621,2.50476,1.42487,6.42582,3.43391,8.26376,2.46516,13.17648-6.94238,25.9839-14.58584,39.34839-22.25895a27.5646,27.5646,0,0,0-3.10374-2.78515c-35.70078-20.63009-71.33209-41.38475-107.28408-61.56775-3.0667-1.72193-9.00652-.93332-12.38023.92545-20.49141,11.2897-40.62185,23.23441-60.88056,34.94782-15.63146,9.038-31.2738,18.05773-48.38269,27.93483,12.23922,7.16465,23.18,13.23992,33.75378,19.89844C2109.09258,971.72222,2113.22087,971.954,2118.80459,968.58606Z"/><path class="b262742c-5fca-42b6-a3a4-1d7ff838b04f" d="M2444.881,1189.43116c4.97293,3.11787,8.59786,2.6805,13.40084-.17064,20.43584-12.13156,41.29006-23.5662,61.58419-35.92305,7.04425-4.28967,12.31888-4.17552,19.29112.15027,16.69722,10.35869,34.7149,18.72687,50.7622,29.95336,13.25382,9.27255,23.92786,9.10029,36.28586-.60015,7.29432-5.72565,15.995-9.65991,24.779-14.81992-2.45937-1.67563-3.53324-2.51217-4.70064-3.18779-37.34607-21.6132-74.647-43.30651-112.17737-64.59486-2.4904-1.41283-7.35567-.83214-10.06973.68836-22.87924,12.82015-45.5142,26.076-68.22326,39.19975-15.53305,8.97665-31.067,17.95122-47.99,27.72945C2421.04156,1175.48552,2433.18586,1182.09981,2444.881,1189.43116Z"/><path class="b262742c-5fca-42b6-a3a4-1d7ff838b04f" d="M2456.48348,1109.97008c4.67657,2.94467,8.3353,3.14981,13.28438.16485,17.52219-10.56846,35.4785-20.41523,53.04537-30.91168,4.83124-2.887,8.50154-2.93727,13.36681-.02154,17.7829,10.65784,35.8133,20.90493,53.83537,31.15827,2.21974,1.263,5.69487,3.04354,7.32418,2.18524,11.678-6.15307,23.02881-12.92735,34.87373-19.728a24.42732,24.42732,0,0,0-2.75111-2.4684c-31.64079-18.28418-63.22022-36.67856-95.08375-54.56657-2.71823-1.52582-7.98244-.82705-10.97249.82033-18.16123,10.00583-36.00247,20.59213-53.9574,30.97374-13.85372,8.01022-27.71741,16.004-42.8807,24.75815C2437.41533,1098.68431,2447.11183,1104.06892,2456.48348,1109.97008Z"/><path class="b262742c-5fca-42b6-a3a4-1d7ff838b04f" d="M2477.93113,1039.47476c15.12324-9.1216,30.62087-17.62036,45.78255-26.67967,4.16973-2.49133,7.33761-2.53486,11.53674-.01829,15.34807,9.1987,30.90984,18.04221,46.4642,26.89222,1.916,1.08984,4.91527,2.62654,6.32139,1.88563,10.079-5.31051,19.876-11.15726,30.09876-17.0267a21.09628,21.09628,0,0,0-2.37417-2.1306c-27.30875-15.78057-54.56425-31.6563-82.06517-47.09512-2.34592-1.317-6.88936-.71383-9.47006.708-15.67452,8.6356-31.07306,17.77271-46.56954,26.73269-11.957,6.91344-23.9223,13.81275-37.00941,21.36823,9.36192,5.48046,17.73079,10.12785,25.81928,15.22118C2470.50206,1041.87347,2473.66,1042.05083,2477.93113,1039.47476Z"/><path class="b262742c-5fca-42b6-a3a4-1d7ff838b04f" d="M986.707,1182.8817c6.41563,4.02225,11.09266,3.458,17.28926-.22042,26.365-15.65137,53.26973-30.40369,79.45229-46.34587,9.08825-5.53418,15.8931-5.38692,24.88827.194,21.54188,13.364,44.78741,24.16033,65.49044,38.64406,17.09963,11.96278,30.87047,11.7405,46.814-.77425,9.41078-7.38693,20.63588-12.46266,31.96841-19.12-3.17274-2.16185-4.55848-3.24081-6.06439-4.11277-48.182-27.88389-96.30534-55.8715-144.72485-83.33654-3.213-1.82265-9.48974-1.07363-12.99149.8884-29.5176,16.53955-58.71985,33.6415-88.018,50.573-20.03968,11.5812-40.08075,23.15963-61.9139,35.7751C955.95068,1164.8895,971.61872,1173.423,986.707,1182.8817Z"/><path class="b262742c-5fca-42b6-a3a4-1d7ff838b04f" d="M1001.6758,1080.36518c6.03383,3.79905,10.75393,4.06392,17.139.21278,22.606-13.63469,45.77236-26.33861,68.436-39.88069,6.233-3.72426,10.96833-3.78932,17.24527-.02755,22.94244,13.75023,46.20418,26.97024,69.455,40.19859,2.8641,1.62955,7.34733,3.92662,9.44945,2.81918,15.06628-7.93821,29.71047-16.67823,44.99208-25.45206-2.00672-1.821-2.67586-2.6798-3.54921-3.18455-40.82143-23.58912-81.56321-47.32041-122.67174-70.39853-3.50684-1.96875-10.29872-1.06692-14.15588,1.05835-23.43076,12.90883-46.44868,26.56668-69.61294,39.96034-17.87342,10.33461-35.75935,20.64769-55.32252,31.94179C977.0751,1065.805,989.58522,1072.75181,1001.6758,1080.36518Z"/><path class="b262742c-5fca-42b6-a3a4-1d7ff838b04f" d="M1029.34668,989.4162c19.51108-11.76805,39.50537-22.7329,59.066-34.42061,5.37951-3.21418,9.46658-3.27045,14.88383-.02362,19.80143,11.86761,39.87838,23.27725,59.94561,34.69475,2.47188,1.40612,6.34154,3.38877,8.1554,2.43275,13.00329-6.85115,25.64284-14.39436,38.83183-21.96675a27.18771,27.18771,0,0,0-3.063-2.74879c-35.23214-20.3592-70.39575-40.84134-105.87588-60.75946-3.0264-1.69925-8.8882-.921-12.21769.91341-20.22236,11.14128-40.08885,22.92947-60.08129,34.48891-15.42655,8.91947-30.86352,17.82064-47.74783,27.56807,12.07854,7.07088,22.87553,13.06651,33.31086,19.6375C1019.762,992.51114,1023.83612,992.73967,1029.34668,989.4162Z"/><path class="b262742c-5fca-42b6-a3a4-1d7ff838b04f" d="M643.80581,1220.15391c4.0322,2.52768,6.97132,2.1732,10.86576-.13845,16.56941-9.83635,33.478-19.10775,49.93283-29.12678,5.71153-3.4779,9.98824-3.38552,15.64142.122,13.53814,8.39874,28.14714,15.18391,41.15808,24.28628,10.74651,7.51821,19.4011,7.37859,29.421-.48645,5.91436-4.64253,12.9688-7.83241,20.09085-12.01626-1.994-1.35866-2.8648-2.03683-3.81108-2.58464-30.28075-17.52427-60.52445-35.11337-90.95431-52.37415-2.01923-1.14541-5.96391-.67469-8.16466.55847-18.55066,10.39458-36.90337,21.14248-55.316,31.78318-12.59417,7.27834-25.18927,14.555-38.91056,22.48331C624.47672,1208.84639,634.32349,1214.20946,643.80581,1220.15391Z"/><path class="b262742c-5fca-42b6-a3a4-1d7ff838b04f" d="M653.21336,1155.726c3.79186,2.3876,6.7583,2.55407,10.77105.13383,14.207-8.56892,28.76627-16.553,43.00968-25.06355,3.91689-2.3406,6.89306-2.38135,10.83774-.01736,14.41844,8.64138,29.03786,16.94982,43.6501,25.26336,1.8,1.02408,4.61752,2.46771,5.93843,1.77171,9.46867-4.98891,18.672-10.48164,28.27588-15.99567a19.82694,19.82694,0,0,0-2.23062-2.00139c-25.65465-14.8248-51.2593-29.739-77.09432-44.24284-2.204-1.2371-6.47236-.67053-8.89655.6652-14.72546,8.1128-29.19137,16.6963-43.74919,25.11356-11.23274,6.49482-22.47336,12.97644-34.76815,20.07418C637.75277,1146.57569,645.61481,1150.94154,653.21336,1155.726Z"/><path class="b262742c-5fca-42b6-a3a4-1d7ff838b04f" d="M670.60333,1098.56808c12.26192-7.396,24.82761-14.2867,37.12079-21.63218,3.38089-2.01992,5.94932-2.05534,9.35382-.01482,12.4446,7.45847,25.06216,14.62891,37.6737,21.80445,1.55337.88354,3.98543,2.12967,5.12528,1.52883,8.1723-4.30564,16.1156-9.04634,24.40436-13.80534a17.10111,17.10111,0,0,0-1.925-1.72749c-22.142-12.79491-44.241-25.66716-66.53883-38.18515-1.90207-1.06785-5.586-.57861-7.67843.57421-12.709,7.00188-25.19436,14.41034-37.7589,21.675-9.69487,5.60549-19.39647,11.19963-30.00776,17.32561,7.59091,4.44364,14.37653,8.21166,20.93456,12.34134C664.57969,1100.513,667.14025,1100.65677,670.60333,1098.56808Z"/><path class="b262742c-5fca-42b6-a3a4-1d7ff838b04f" d="M2871.18677,191.5057q-35.22253-35.052-113.76662-35.12772h-649.369q-78.58206,0-113.72888,35.12772a97.93351,97.93351,0,0,0-16.46361,22.83686q333.049,49.73256,666.13616,192.06425c32.69984,13.99774,53.564,46.77352,53.03287,82.31847-2.35194,155.03978-.9104,310.11754-.9104,493.79832-5.88078,113.85948,4.70435,242.70211-1.129,375.1493-22.36638-2.97385-72.81507-8.50664-144.32105-9.65251q.00383-49.16956.0264-98.33938c.00254-2.809.33156-5.618.595-9.79745,4.216,2.15,7.12436,3.47953,9.88473,5.06648,16.33,9.389,32.57435,18.92876,48.99071,28.16335,2.33759,1.31489,6.20239,2.62492,8.091,1.59945,15.03919-8.16651,29.77183-16.89727,45.32272-25.873a47.06689,47.06689,0,0,0-3.91018-2.94583c-41.3572-23.90564-82.77553-47.70662-124.03294-71.78382-4.57515-2.67007-7.77451-1.84372-11.89609.55036q-60.22425,34.97839-120.60018,69.69583c-2.02964,1.17273-3.85044,2.70689-6.41818,4.53533,15.17187,8.77429,29.4845,17.25892,44.07011,25.24507,1.99191,1.09053,5.80947.52906,7.99425-.68443,15.51569-8.61916,30.811-17.63424,46.21228-26.4604,4.14681-2.37648,8.417-4.53625,13.05956-7.02573v107.92613c-44.14907.42487-94.37711,2.60918-149.59707,7.79837-43.54267,4.09193-92.16061,10.35452-144.56763,19.65023q.00486-65.97561.03542-131.95147c.00324-3.67216.43344-7.34455.77773-12.80834,5.51172,2.81085,9.31377,4.549,12.92249,6.62355,21.34832,12.27419,42.58434,24.74565,64.04565,36.81817,3.056,1.71892,8.10839,3.43136,10.57749,2.09077,19.66066-10.6759,38.92052-22.08993,59.25054-33.82394a61.584,61.584,0,0,0-5.11185-3.85091c-54.06645-31.25181-108.21277-62.367-162.14863-93.84318-5.981-3.49064-10.16374-2.41029-15.55181.71938q-78.73105,45.72744-157.661,91.1136c-2.65341,1.533-5.0336,3.53857-8.39064,5.92895,19.83454,11.471,38.54543,22.56272,57.61335,33.00314,2.60385,1.42557,7.59438.6916,10.45084-.89488,20.28348-11.2677,40.27894-23.05312,60.41331-34.59172,5.421-3.10675,11.00352-5.93033,17.073-9.1848v155.42667c-149.363,31.36828-324.03239,87.889-500.08036,188.39139q0-115.26675.07409-230.4645c0-6.56289.75875-13.12554,1.3656-22.9128,9.74929,5.0454,16.46384,8.15609,22.83687,11.83589,37.78321,22.00217,75.33858,44.30789,113.27345,65.93058,5.38669,3.07272,14.33949,6.14566,18.70186,3.75575,34.78644-19.11932,68.8139-39.56627,104.77608-60.5821-4.24868-3.26235-6.44874-5.38669-9.02851-6.8662-95.63365-55.95393-191.38122-111.68026-286.74953-168.05142-10.58374-6.25934-17.98109-4.32463-27.50278,1.28966q-139.24009,81.8825-278.78329,163.1579c-4.70389,2.73143-8.91483,6.33529-14.87063,10.62171,35.08975,20.5229,68.16907,40.40073,101.89322,59.06462,4.62794,2.57954,13.42886,1.25191,18.47426-1.5932,35.88624-20.18138,71.24156-41.27316,106.86246-61.9477,9.55966-5.53835,19.4606-10.58375,30.15826-16.42563v252.49446q-56.78838-27.93923-115.47374-53.14679a2557.2662,2557.2662,0,0,0-268.08564-97.64431c-7.73886-2.35194-15.47749-4.66614-23.1404-6.90417-.07572,0-.15166-.038-.2276-.038q-14.84169-4.3479-29.4801-8.44644.01042-73.51141.03936-147.02215c.00324-3.624.42765-7.24823.76754-12.64024,5.43925,2.774,9.19175,4.48925,12.75278,6.53649,21.06816,12.113,42.02564,24.4208,63.20517,36.335,3.01576,1.69624,8.00189,3.38645,10.43857,2.06345,19.40272-10.536,38.40975-21.8,58.47281-33.38009a60.75134,60.75134,0,0,0-5.04471-3.8002c-53.35678-30.84176-106.79229-61.54853-160.02012-92.61164-5.90278-3.44479-10.03037-2.37857-15.34783.71012q-77.69782,45.127-155.59153,89.91749c-2.61867,1.51309-4.9676,3.49226-8.28042,5.85115,19.57406,11.32026,38.03929,22.26659,56.85692,32.56994,2.56982,1.40681,7.49482.68257,10.31354-.88331,20.01745-11.11952,39.75057-22.75027,59.6203-34.13744,5.3501-3.066,10.85927-5.85254,16.84911-9.06418v144.78945a2625.33114,2625.33114,0,0,0-338.62934-63.8412q.00208-30.01123.0162-60.02248c.00209-2.27762.26882-4.55524.48229-7.94377,3.4184,1.74323,5.7766,2.82127,8.01462,4.10791,13.24063,7.61244,26.41155,15.3476,39.7221,22.835,1.89535,1.06623,5.029,2.12828,6.56034,1.29684,12.19385-6.62147,24.139-13.70046,36.748-20.9781a38.13881,38.13881,0,0,0-3.17042-2.38829c-33.53267-19.38281-67.11512-38.68088-100.56676-58.20307-3.70967-2.16486-6.3038-1.4948-9.64533.4464q-48.83025,28.3605-97.78369,56.50985c-1.64553.95092-3.1218,2.19473-5.204,3.67725,12.30174,7.11441,23.90656,13.99358,35.73249,20.46895,1.6152.884,4.71037.4288,6.48185-.555,12.58028-6.98846,24.98159-14.29782,37.469-21.45437,3.36237-1.92684,6.82476-3.678,10.58907-5.69648v64.00374c-75.055-7.89885-127.64166-9.7428-149.51533-10.1848-5.42466-276.35564-.038-552.97662-2.42789-829.44595-.41723-46.09095,19.61226-64.6789,57.3575-80.76324q339.081-144.3045,677.97205-192.59516a101.0977,101.0977,0,0,0-18.24666-20.63681q-41.425-35.052-119.95-35.12772h-657.639q-78.63867,0-113.72865,35.12772-35.22254,35.22288-35.1657,113.76663V1397.18962q0,99.23762,6.22138,167.52027a777.14861,777.14861,0,0,0,22.723,130.26843q16.5018,62.02329,41.34909,130.30617c.18963.41723.34129.9104.53115,1.3656,36.72092,100.793,95.82351,192.02628,171.84489,267.74435l947.95443,944.57817,14.14963,14.11166c22.07812,18.77781,50.30167,30.53775,81.56,30.53775,31.22032,0,59.44387-11.75994,81.522-30.53775l14.14963-14.07369,949.43394-946.05768a730.96836,730.96836,0,0,0,170.89653-267.66841q24.80931-68.28276,41.34909-130.30617a781.015,781.015,0,0,0,22.76092-130.26843q6.20215-68.28276,6.18341-167.52027V305.27233Q2906.3145,226.74723,2871.18677,191.5057ZM980.58889,2244.04754Q843.96642,2129.04786,749.41381,1991.9703q-25.20768-42.67672-49.31533-87.70539c147.30115,46.73578,414.89361,321.68762,535.94367,531.08813C1148.261,2375.03651,1062.07291,2312.63384,980.58889,2244.04754Zm578.96191,371.07889c-4.43831-.07595-8.87686-.18986-13.31518-.30355-5.7282-.15165-12.1392-12.06326-16.88106-20.333-195.21267-342.47608-441.7893-564.20542-712.64434-728.46335-23.7086-14.38973-103.2153-52.39939-183.68565-89.65284q-20.91986-51.41976-36.87652-105.19007c413.85749,153.74156,835.00837,456.60483,1124.13276,944.36006Zm340.769-110.95949c-336.02711-488.90457-739.57824-766.77747-1189.52363-899.58747-16.42332-4.84976-76.6771-22.45391-141.07052-40.73946q-5.7326-28.8318-10.06209-58.30842,239.95725,27.19911,464.09526,110.27668c118.54645,44.156,233.83057,100.10994,345.35893,170.555,233.67892,147.56672,451.61454,355.3738,652.13842,634.42267Q1961.05342,2462.77988,1900.31977,2504.16694Zm305.29973-215.92542c-3.75552,2.80737-7.549,5.61451-11.30452,8.38368-54.43667-66.00675-110.76985-127.0818-168.01367-185.69121q-229.08837-234.60807-486.74226-392.77752c-192.22771-117.93081-389.9155-204.451-594.23032-246.78664-.13846-.03519-.25955-.069-.39848-.10442-133.321-33.89317-315.1759-47.45517-394.93428-52.01851-1.01574-12.64048-1.89929-25.328-2.50938-38.14186-.4552-8.11788-.75875-16.236-1.02432-24.42983,26.89592.56888,97.87191,3.26234,198.6269,16.274a2602.01478,2602.01478,0,0,1,420.24256,90.43659c210.8798,64.03408,479.0034,176.01788,737.83315,370.548q200.12529,163.8216,390.46355,382.49709Q2251.805,2253.75875,2205.6195,2288.24152Zm120.06394-101.4378q-36.01924-45.40792-74.42819-88.72971c96.658-96.12682,197.75425-167.82381,309.05525-226.05374Q2471.1447,2047.10876,2325.68344,2186.80372Zm284.24593-425.81887c-139.71418,56.97824-273.96573,137.93112-402.37516,240.73474-10.16651,8.11812-19.6882,14.52912-28.75469,18.39832q-38.80742-39.77466-79.66322-77.5009c175.10747-125.29875,353.3254-212.16968,539.965-265.54407Q2625.89991,1719.86358,2609.92937,1760.98485Zm67.44807-239.78614q-4.83656,26.118-10.58375,51.66726c-229.27834,30.1203-448.54182,124.61595-660.9391,260.68829a108.4497,108.4497,0,0,1-20.59883,10.69766q-49.56168-40.00213-101.6654-77.19736c261.6369-156.59523,525.20827-237.77571,796.63219-261.97817C2679.31215,1510.46307,2678.36378,1515.81179,2677.37744,1521.19871Zm12.32883-87.89526c-12.70809-.26557-25.41641-.41722-38.08652-.64482-134.66878-2.20029-252.76,3.56588-396.91253,37.70726-40.48593,9.58884-77.53169,17.91348-117.59808,30.3479-110.01111,34.14137-189.67433,68.28275-303.47893,128.97854-13.31379,7.10075-54.81523,31.19092-87.18536,46.8027-3.26536-1.9889-6.49945-4.02132-9.77615-5.98475q-43.49289-26.26764-88.44932-50.70616c266.5399-159.07707,532.93486-213.0391,712.25907-230.01092,172.65643-16.33579,298.69516-2.42766,332.58162,2.10744C2692.1506,1405.67032,2691.09873,1419.46941,2689.70627,1433.30345Z"/></svg>