<svg width="35" height="34" viewBox="0 0 35 34" fill="none" xmlns="http://www.w3.org/2000/svg">
<ellipse cx="17.1783" cy="17" rx="17.0118" ry="17" fill="#C9C9C9"/>
<path d="M27.6899 12.3036C27.5767 11.8518 27.3463 11.4379 27.0218 11.1036C26.6973 10.7694 26.2903 10.5266 25.8419 10.3998C24.2035 10 17.65 10 17.65 10C17.65 10 11.0964 10 9.45805 10.4379C9.00964 10.5646 8.60264 10.8074 8.27817 11.1417C7.9537 11.476 7.72326 11.8899 7.6101 12.3416C7.31026 14.0032 7.16358 15.6888 7.17193 17.3771C7.16124 19.0782 7.30792 20.7766 7.6101 22.4507C7.73485 22.8884 7.97046 23.2866 8.29417 23.6068C8.61789 23.9269 9.01876 24.1582 9.45805 24.2784C11.0964 24.7162 17.65 24.7162 17.65 24.7162C17.65 24.7162 24.2035 24.7162 25.8419 24.2784C26.2903 24.1516 26.6973 23.9088 27.0218 23.5745C27.3463 23.2402 27.5767 22.8263 27.6899 22.3746C27.9874 20.7255 28.1341 19.0528 28.128 17.3771C28.1387 15.6761 27.9921 13.9777 27.6899 12.3036V12.3036Z" fill="#0E0E0E"/>
<path d="M15.5068 20.49L20.984 17.3773L15.5068 14.2646V20.49Z" fill="#C9C9C9"/>
</svg>
