<svg width="61" height="64" viewBox="0 0 61 64" fill="none" xmlns="http://www.w3.org/2000/svg">
<rect x="10.3667" y="9.38988" width="7.18554" height="54.6101" fill="#065B33"/>
<rect x="1.81885" y="16.3602" width="3.6018" height="35.5321" transform="rotate(-111.476 1.81885 16.3602)" fill="#065B33"/>
<path d="M17.4585 24.0318L17.4585 15.0967L29.372 21.2826L29.372 24.0318L17.4585 24.0318Z" fill="#065B33"/>
<rect x="17.4585" y="49.3135" width="14.8573" height="9.90488" transform="rotate(-90 17.4585 49.3135)" fill="#065B33"/>
<rect x="18.6963" y="53.0276" width="4.95244" height="1.23811" transform="rotate(-90 18.6963 53.0276)" fill="#065B33"/>
<rect x="21.1729" y="53.0276" width="4.95244" height="1.23811" transform="rotate(-90 21.1729 53.0276)" fill="#065B33"/>
<rect x="23.6489" y="53.0276" width="4.95244" height="1.23811" transform="rotate(-90 23.6489 53.0276)" fill="#065B33"/>
<path d="M23.6152 27.3537C22.251 27.3537 21.145 26.2478 21.145 24.8836L21.145 23.761L26.1749 23.761L26.1749 24.794C26.1749 26.2077 25.0289 27.3537 23.6152 27.3537Z" fill="#065B33"/>
<path d="M42.5003 22C46.0272 26.2343 47.9585 31.5707 47.9585 37.0815C47.9585 42.5922 46.0272 47.9286 42.5003 52.1629" stroke="#065B33" stroke-width="3" stroke-linecap="round" stroke-linejoin="round"/>
<path d="M49.9586 14C55.4772 20.2606 58.522 28.3195 58.522 36.6651C58.522 45.0106 55.4772 53.0695 49.9586 59.3301" stroke="#065B33" stroke-width="3" stroke-linecap="round" stroke-linejoin="round"/>
<path d="M38.1248 29C39.6699 31.1748 40.5 33.7765 40.5 36.4443C40.5 39.1121 39.6699 41.7138 38.1248 43.8886" stroke="#065B33" stroke-width="3" stroke-linecap="round" stroke-linejoin="round"/>
</svg>
