<svg width="122" height="64" viewBox="0 0 122 64" fill="none" xmlns="http://www.w3.org/2000/svg">
<path d="M31.8236 9.04743C31.6999 9.02126 31.5784 9.10037 31.5524 9.22408L29.4864 19.0281C29.4766 19.0746 29.4526 19.1169 29.4176 19.1492L24.0242 24.1198C23.9394 24.1979 23.8098 24.2008 23.7217 24.1265L18.4078 19.6479C18.3769 19.6219 18.3398 19.6045 18.3 19.5975L16.1743 19.2233C16.0184 19.1959 15.9372 19.0215 16.013 18.8826C18.5729 14.1962 18.4875 9.39944 13.8941 9.40217C9.41022 9.40484 9.422 14.568 11.3454 17.9638C11.4439 18.1377 11.297 18.3563 11.1002 18.3218L7.97709 17.7742C7.89952 17.7606 7.8204 17.7878 7.76766 17.8463L0.670192 25.7182C0.579231 25.8191 0.595697 25.9766 0.705563 26.0565L8.69946 31.8689C8.75247 31.9075 8.7864 31.9669 8.79266 32.0322L8.95408 33.7163C8.95592 33.7354 8.95533 33.7547 8.95234 33.7737L5.33704 56.7357C5.31518 56.8745 5.42249 57 5.56303 57H9.22199C9.32899 57 9.42171 56.9259 9.44519 56.8215L13.3096 39.6401C13.3617 39.4084 13.6888 39.3998 13.7531 39.6284L18.5881 56.8331C18.6158 56.9318 18.7058 57 18.8083 57H22.3642C22.51 57 22.6186 56.8655 22.5879 56.723L22.4248 55.9674C22.3771 55.7464 22.6447 55.5975 22.8074 55.7546L23.7934 56.7072C23.924 56.8333 24.1423 56.7644 24.177 56.5863L30.8355 22.3098C30.8449 22.2615 30.8696 22.2175 30.9059 22.1844C31.3814 21.7501 31.79 21.3692 32.0801 21.0812C32.122 21.0396 32.1458 20.9831 32.146 20.924C32.1482 19.8735 31.8873 19.0259 31.6305 18.4441C31.6107 18.3993 31.6051 18.3495 31.6152 18.3016L33.4526 9.62603C33.4788 9.50241 33.3998 9.38097 33.2761 9.35481L31.8236 9.04743ZM8.32256 21.8527C8.45525 21.6798 8.73168 21.7728 8.73284 21.9908L8.76364 27.7673C8.76466 27.957 8.54767 28.0654 8.39657 27.9508L5.57597 25.8103C5.47495 25.7336 5.45556 25.5894 5.53276 25.4888L8.32256 21.8527ZM18.1338 24.0987C18.1429 23.9054 18.373 23.81 18.5162 23.9401L23.4559 28.4293C23.541 28.5067 23.6692 28.5099 23.7567 28.4351C24.279 27.9893 26.0702 26.4573 27.9024 24.8564C28.0671 24.7125 28.3211 24.8592 28.2782 25.0737L22.4754 54.1105C22.4268 54.3539 22.0797 54.3565 22.0274 54.1138L17.6809 33.9294C17.6768 33.9101 17.6751 33.8903 17.6761 33.8706L18.1338 24.0987Z" fill="#065B33"/>
<path d="M78.2357 9.00003C78.4365 9.00003 78.6372 9.00003 78.838 9.01529C86.807 9.42875 94.6061 18.3083 101.525 19.3153C110.589 20.6274 115.952 20.1544 116.749 28.2406C116.99 30.6054 118.057 31.6887 118.786 34.0993C119.826 34.9537 121.386 35.625 121.449 36.9524C121.523 38.5086 121.679 40.1258 120.522 41.5294L118.264 40.0343C118.389 36.4794 117.435 35.0605 116.006 31.8718C115.489 36.4794 116.667 40.5683 117.906 45.4047C117.367 49.341 116.491 53.3689 114.723 57H109.166C112.41 53.4757 114.373 49.3715 112.581 45.4047C111.228 45.2216 109.292 44.8707 108.119 43.7875C106.019 48.8223 105.386 52.484 101.926 57H95.6717C98.8222 53.0637 103.517 51.477 102.39 43.1009C97.6948 43.1925 95.7489 44.1384 88.7838 42.2008L89.2162 47.6322C88.166 51.2634 85.4634 53.9944 83.2858 57H77.3245C79.9654 54.0097 84.2896 52.3924 83.5792 46.4422L82.2356 42.7042C78.8689 47.678 75.7801 52.7433 70.2049 57H64.6452C68.0737 53.4146 74.4983 49.5699 74.3748 42.7042C70.869 43.3908 69.7725 44.1994 68.0428 43.6197C66.6683 47.2508 65.0931 50.4548 62.3286 52.2551C59.0854 48.6697 58.3905 46.8084 58.2824 42.0787L54.8075 44.2452C53.8346 44.947 51.7342 43.4213 51.9041 42.3076L52.491 37.5016C51.6107 35.686 50.4987 33.9315 48.5528 32.4058C48.1513 28.3627 50.0972 24.6095 52.4292 20.7952C53.2632 19.4221 57.4021 19.7577 60.1356 18.9644C67.3324 14.8908 72.0119 9.0519 78.2357 9.00003ZM66.9 14.433L65.7417 16.6453C64.0274 19.9256 63.1317 21.4665 58.5449 23.5415C57.6492 24.0602 56.8307 24.8536 56.5218 25.6774C56.2129 26.5471 56.2438 27.432 56.46 28.2406C56.8924 29.9341 58.9001 31.6887 60.3673 31.2462C65.4328 29.568 68.3362 27.432 69.4636 24.7163C70.591 22.0005 69.7107 19.1475 68.1818 16.569L66.9 14.433ZM66.8691 20.246C67.2861 21.5123 67.317 22.6413 66.9 23.6635C66.2359 25.2502 64.2437 27.0048 59.765 28.5458C59.1318 27.6303 58.653 26.5318 59.7032 26.0436C62.6221 24.5179 65.2784 22.6108 66.8691 20.246ZM53.9581 30.4376C54.4214 31.8107 54.0508 32.9703 53.2014 34.0383C54.3905 33.8094 55.9967 34.0993 56.321 32.833C56.5527 31.9328 55.2245 31.1852 53.9581 30.4376Z" fill="#065B33"/>
<path d="M43.5 57L39.5 53.1539L43.5 49.3077L39.5 45.4616L43.5 41.6154L39.5 37.7693L43.5 33.9231L39.5 30.077L43.5 26.2308L39.5 22.3846L43.5 18.5385L39.5 14.6923L43.5 10.8462L39.5 7.00003" stroke="#065B33" stroke-width="0.792535"/>
</svg>
