<svg width="49" height="60" viewBox="0 0 49 60" fill="none" xmlns="http://www.w3.org/2000/svg">
<path d="M40.8199 47.2506L40.82 47.2506C42.8747 45.8809 44.5594 44.0252 45.7247 41.8481C46.89 39.671 47.4998 37.2399 47.5 34.7706L40.8199 47.2506ZM40.8199 47.2506L24.5 58.1314L8.18006 47.2506L8.18 47.2506M40.8199 47.2506L8.18 47.2506M8.18 47.2506C6.12568 45.8811 4.44115 44.0258 3.27587 41.8492M8.18 47.2506L3.27587 41.8492M24.5 1.69102L2.805 6.51213C2.80498 6.51214 2.80495 6.51214 2.80493 6.51215C2.43485 6.59443 2.10389 6.80043 1.86665 7.09614C1.62943 7.39183 1.5001 7.75955 1.5 8.13863L24.5 1.69102ZM24.5 1.69102L46.195 6.51213C46.195 6.51214 46.195 6.51214 46.1951 6.51215C46.5651 6.59443 46.8961 6.80043 47.1334 7.09614C47.3706 7.39183 47.4999 7.75955 47.5 8.13863C47.5 8.13868 47.5 8.13874 47.5 8.1388V34.7706L24.5 1.69102ZM3.27587 41.8492C2.11063 39.6726 1.50063 37.2421 1.5 34.7733M3.27587 41.8492L1.5 34.7733M1.5 34.7733C1.5 34.7732 1.5 34.7731 1.5 34.7731M1.5 34.7733V34.7731M1.5 34.7731V8.1388V34.7731Z" stroke="#065B33" stroke-width="2"/>
<path d="M38.0075 44.2369L38.0076 44.2368C39.6969 43.1107 41.0822 41.5848 42.0403 39.7948C42.9984 38.0048 43.4998 36.0059 43.5 33.9756L38.0075 44.2369ZM38.0075 44.2369L24.5 53.2426L10.9925 44.2369L10.9924 44.2368M38.0075 44.2369L10.9924 44.2368M10.9924 44.2368C9.30334 43.1109 7.91828 41.5854 6.96016 39.7957M10.9924 44.2368L6.96016 39.7957M24.5 6.57996L6.457 10.5895C6.45698 10.5895 6.45695 10.5895 6.45693 10.5895C6.18555 10.6499 5.94285 10.8009 5.76888 11.0178C5.59493 11.2346 5.50009 11.5043 5.5 11.7822L24.5 6.57996ZM24.5 6.57996L42.543 10.5895C42.543 10.5895 42.543 10.5895 42.5431 10.5895C42.8145 10.6499 43.0572 10.8009 43.2311 11.0178L44.0111 10.392L43.2311 11.0178C43.4051 11.2346 43.4999 11.5043 43.5 11.7822C43.5 11.7823 43.5 11.7823 43.5 11.7824V33.9755L24.5 6.57996ZM6.96016 39.7957C6.00208 38.0061 5.50052 36.0077 5.5 33.9778M6.96016 39.7957L5.5 33.9778M5.5 33.9778C5.5 33.9777 5.5 33.9776 5.5 33.9775M5.5 33.9778V33.9775M5.5 33.9775V11.7824V33.9775Z" stroke="#065B33" stroke-width="2"/>
<path d="M10.805 14.71L24.5 11.6666L38.195 14.71C38.5651 14.7922 38.8961 14.9982 39.1334 15.294C39.3706 15.5897 39.4999 15.9575 39.5 16.3366V32.9816C39.4999 34.6279 39.0933 36.2486 38.3165 37.7C37.5396 39.1514 36.4164 40.3885 35.0467 41.3016L24.5 48.3333L13.9533 41.3016C12.5838 40.3887 11.4608 39.1518 10.6839 37.7007C9.90706 36.2496 9.50039 34.6292 9.5 32.9833V16.3366C9.50007 15.9575 9.6294 15.5897 9.86665 15.294C10.1039 14.9982 10.4349 14.7922 10.805 14.71Z" fill="#065B33"/>
</svg>
