<svg width="65" height="68" viewBox="0 0 65 68" fill="none" xmlns="http://www.w3.org/2000/svg">
<g clip-path="url(#clip0_814_855)">
<path fill-rule="evenodd" clip-rule="evenodd" d="M18.0025 33.0018C15.786 31.8335 14.5849 31.6315 12.3357 32.9745C12.1018 33.1149 11.8218 33.1567 11.5571 33.0907C11.2925 33.0247 11.0649 32.8562 10.9244 32.6224C10.784 32.3885 10.7422 32.1085 10.8082 31.8438C10.8743 31.5792 11.0427 31.3516 11.2766 31.2111C13.8534 29.6934 16.321 29.8408 18.9197 31.1784C19.1437 31.3119 19.3086 31.5257 19.3807 31.7763C19.4529 32.027 19.4269 32.2957 19.308 32.5279C19.1891 32.7601 18.9863 32.9383 18.7408 33.0263C18.4952 33.1143 18.2254 33.1056 17.9861 33.0018H18.0025ZM22.2444 61.5815C22.2444 61.8763 22.2444 62.1274 22.2444 62.4441C22.2023 63.7179 22.0192 64.983 21.6985 66.2165C21.6137 66.5141 21.4184 66.768 21.1525 66.9262C21.0205 67.0041 20.8743 67.0548 20.7224 67.0754C20.5706 67.096 20.4161 67.0861 20.2681 67.0463C19.971 66.9606 19.7174 66.7655 19.5584 66.5004C19.4805 66.3684 19.4298 66.2221 19.4092 66.0703C19.3886 65.9184 19.3985 65.764 19.4383 65.616C19.7127 64.6423 19.8739 63.6403 19.9187 62.6297V62.2912C19.4165 62.4332 18.9142 62.5533 18.4229 62.657C15.4366 63.3394 11.1455 63.9672 8.29029 62.6079C7.7552 62.3592 7.26749 62.0193 6.84902 61.6033C6.40335 61.1567 6.06377 60.6157 5.85542 60.0201C5.64539 59.3894 5.56553 58.7227 5.62067 58.0602C5.66273 57.4936 5.76709 56.9334 5.93185 56.3897C6.112 55.7846 6.3402 55.195 6.61427 54.6263C6.48324 53.9548 6.35222 53.2669 6.27579 52.5845C6.07925 51.1214 5.94277 49.1506 5.90455 47.6711C5.87725 46.9231 5.8718 46.1643 5.86088 45.4164V45.2089C5.12932 45.1652 4.3541 45.1434 3.63346 45.0779C3.33513 45.0648 3.03973 45.0134 2.75451 44.925C2.47006 44.8418 2.19958 44.7167 1.95198 44.5538C1.72372 44.3949 1.51324 44.2118 1.32415 44.0079C0.960032 43.5852 0.706757 43.0787 0.587142 42.5338C0.525601 42.2561 0.496291 41.9721 0.499792 41.6876C0.51498 41.2236 0.595855 40.7641 0.740004 40.3228C0.905565 39.8495 1.1254 39.397 1.39513 38.9743L3.89005 33.848C4.32153 33.0519 4.67617 32.2165 4.94916 31.3531C5.16754 30.5014 4.9983 28.1703 5.03105 27.2804C5.05192 25.1424 5.48763 23.0287 6.314 21.0567L1.90831 19.146C1.76697 19.0853 1.63913 18.9971 1.53227 18.8865C1.42542 18.7759 1.34167 18.6451 1.28594 18.5017C1.22648 18.3619 1.19583 18.2115 1.19583 18.0595C1.19583 17.9076 1.22648 17.7572 1.28594 17.6173C3.42055 12.8677 12.625 5.48665 17.3419 3.12275C22.7938 0.268498 29.051 -0.657007 35.0957 0.496802L35.8327 0.655123C36.0675 0.704257 36.3131 0.775229 36.5643 0.835282C36.6115 0.848065 36.6534 0.875627 36.6839 0.913936C36.7143 0.952246 36.7317 0.999292 36.7335 1.0482V3.00264C36.7321 3.06013 36.7087 3.11487 36.668 3.15552C36.6274 3.19618 36.5726 3.21963 36.5151 3.22102H36.4387L35.5543 2.99173C35.254 2.92075 34.9483 2.85524 34.6535 2.80065C29.2137 1.76379 23.5835 2.56865 18.6521 5.08812C13.7933 7.47386 8.86898 11.5138 4.1794 17.6064C5.56061 18.2179 7.20934 18.8293 8.54688 19.5117C10.0489 19.9513 11.6377 20.0039 13.1655 19.6646C14.9754 19.3045 16.762 18.836 18.5157 18.2615C19.8423 17.863 21.1307 17.4645 22.3645 17.1697C23.5279 16.8688 24.7226 16.7057 25.924 16.6838C25.9982 16.6732 26.0736 16.6732 26.1478 16.6838C26.224 16.6923 26.299 16.7087 26.3717 16.7329C26.664 16.8302 26.9058 17.0394 27.044 17.3147C27.1821 17.5901 27.2054 17.909 27.1087 18.2015C26.5636 19.719 26.2758 21.3169 26.257 22.9293C26.2448 24.1391 26.5139 25.3353 27.0432 26.4233C27.5698 27.4528 28.291 28.3706 29.1669 29.1256C30.1397 29.9768 31.2099 30.7098 32.3551 31.3094C32.4878 31.384 32.6043 31.4842 32.698 31.6042C32.7917 31.7241 32.8607 31.8614 32.9011 32.0082C32.9474 32.223 32.9323 32.4465 32.8573 32.6531C32.7824 32.8597 32.6507 33.041 32.4774 33.1761C32.3041 33.3112 32.0962 33.3947 31.8775 33.417C31.6589 33.4393 31.4384 33.3994 31.2414 33.3021C29.9061 32.5972 28.6582 31.7378 27.5236 30.7416C26.4586 29.8075 25.5837 28.6768 24.9468 27.4114C24.3658 26.215 24.0228 24.9171 23.9368 23.5899C23.8599 22.0808 24.0164 20.569 24.4008 19.1077C23.6153 19.2327 22.8371 19.4004 22.0697 19.61C21.1252 19.8666 20.148 20.1559 19.1599 20.4617C17.3381 21.0624 15.4823 21.5547 13.6022 21.9357C11.9107 22.2963 10.162 22.2963 8.47045 21.9357C7.73531 23.6625 7.35116 25.5183 7.34036 27.395C7.30215 28.5524 7.49868 30.7962 7.23117 31.8553C6.93012 32.9161 6.50306 33.937 5.95915 34.8962L3.44238 40.1099L3.38779 40.1972C3.22012 40.4515 3.08271 40.7245 2.97834 41.0107C2.8882 41.2425 2.83835 41.4881 2.83094 41.7368C2.82893 41.843 2.83808 41.9491 2.85823 42.0534C2.87658 42.144 2.90591 42.232 2.94558 42.3155C2.97731 42.379 3.01773 42.4378 3.06569 42.4902C3.10965 42.5377 3.15913 42.5799 3.21309 42.6157C3.28062 42.6618 3.35408 42.6985 3.43146 42.7249C3.52221 42.7505 3.61568 42.7651 3.70989 42.7686C4.62706 42.7686 5.71893 42.8832 6.65794 42.9378H6.78897H6.96913C7.8317 42.9378 8.88536 43.0798 9.75885 43.1616C10.0676 43.1896 10.3534 43.3364 10.5559 43.5711C10.7056 43.747 10.7998 43.9634 10.8266 44.1928C10.8533 44.4222 10.8115 44.6544 10.7063 44.8601C10.6011 45.0658 10.4374 45.2356 10.2357 45.3482C10.034 45.4609 9.80349 45.5112 9.57324 45.4928L8.18656 45.4054V45.4437C8.18656 46.1206 8.18656 46.7921 8.22478 47.4636C8.26299 48.1351 8.27391 48.7084 8.3285 49.3471C10.9162 50.5591 12.4558 49.2106 13.2419 49.5273C13.3853 49.583 13.5161 49.6667 13.6267 49.7736C13.7373 49.8805 13.8255 50.0083 13.8861 50.1496C13.947 50.2881 13.9785 50.4378 13.9785 50.5891C13.9785 50.7404 13.947 50.8901 13.8861 51.0286C13.8313 51.1731 13.7479 51.3051 13.641 51.4167C13.5341 51.5283 13.4058 51.6172 13.2638 51.6782C11.7667 52.3454 10.074 52.4272 8.51958 51.9075L8.56872 52.3224C8.65607 53.0704 8.81439 53.8074 8.96179 54.5444C8.97839 54.6895 8.97839 54.836 8.96179 54.9811C8.94164 55.123 8.89138 55.2589 8.81439 55.3797C8.56256 55.8758 8.34902 56.3905 8.17564 56.9192C8.03973 57.3392 7.95182 57.7733 7.91359 58.2131C7.88953 58.5575 7.92838 58.9035 8.02824 59.234C8.11347 59.5192 8.26933 59.7784 8.48137 59.9874C8.73404 60.2166 9.02388 60.4013 9.33848 60.5333C11.9972 61.7344 16.8233 60.6916 19.5202 59.9874C22.0642 59.2777 24.9795 58.2185 27.0486 56.5644C27.6024 56.0901 28.0522 55.5065 28.3698 54.8501C29.276 53.0758 29.822 50.7829 30.7282 48.894C31.1274 47.9285 31.733 47.062 32.5025 46.3554C32.6218 46.2602 32.7597 46.1912 32.9074 46.1526C33.055 46.1141 33.2091 46.1069 33.3596 46.1315C33.5132 46.1496 33.6616 46.1986 33.7957 46.2756C33.9299 46.3525 34.0471 46.4558 34.1403 46.5792C34.2342 46.7008 34.3031 46.8398 34.343 46.9882C34.3829 47.1366 34.3929 47.2913 34.3726 47.4436C34.3523 47.5959 34.302 47.7427 34.2247 47.8754C34.1473 48.0082 34.0444 48.1243 33.922 48.217C33.3967 48.7579 32.9879 49.4008 32.7209 50.1059C31.8856 51.9785 31.2796 54.3642 30.3515 56.1112C28.943 58.7536 26.0878 60.1457 23.4072 61.1939C23.1943 61.2812 22.9596 61.3577 22.7303 61.4505L22.2226 61.6252L22.2444 61.5815ZM58.7238 29.5078C58.8494 34.1756 57.7247 38.0299 55.0606 42.3919C52.6475 46.3335 48.9788 49.9749 43.8198 52.9939C43.7516 53.034 43.6804 53.0686 43.6068 53.0977H43.5741C43.5741 53.7819 43.5959 54.4589 43.6396 55.1286C43.6833 55.8437 43.7542 56.5534 43.8361 57.2577C43.9944 58.5997 44.2351 59.9306 44.5568 61.243C44.8697 62.5062 45.258 63.7496 45.7196 64.9663C45.7729 65.1095 45.7974 65.2618 45.7918 65.4145C45.7862 65.5672 45.7505 65.7173 45.6869 65.8562C45.5613 66.1322 45.3334 66.3487 45.0512 66.4597C44.769 66.5708 44.4546 66.5677 44.1746 66.4512C44.0339 66.3887 43.9073 66.2985 43.8022 66.1859C43.6972 66.0733 43.6159 65.9408 43.5632 65.7961C42.5659 63.1323 41.8878 60.3596 41.5432 57.5361C41.363 56.0433 41.27 54.5413 41.2648 53.0376C41.2555 51.4368 41.3339 49.8366 41.4995 48.2443C41.5143 48.0928 41.559 47.9457 41.6312 47.8117C41.7034 47.6776 41.8015 47.5593 41.9199 47.4636C42.1586 47.2682 42.4643 47.1742 42.7716 47.2016C43.0774 47.236 43.3575 47.3892 43.5516 47.6281C43.7456 47.8671 43.838 48.1726 43.8088 48.4791C43.7761 48.8558 43.7433 49.2434 43.7051 49.6419L43.6287 50.368C47.5205 48.0357 50.7967 44.8044 53.1825 40.9452C55.5192 37.0144 56.5073 33.6569 56.3872 29.4805C56.3857 29.4221 56.4071 29.3653 56.4469 29.3225C56.4867 29.2796 56.5417 29.2541 56.6001 29.2512H58.489C58.5484 29.2512 58.6053 29.2748 58.6473 29.3168C58.6893 29.3588 58.7129 29.4157 58.7129 29.475L58.7238 29.5078ZM38.1202 36.1191C38.1478 36.2686 38.1457 36.422 38.114 36.5707C38.0823 36.7194 38.0217 36.8603 37.9355 36.9856C37.8493 37.1108 37.7393 37.2178 37.6117 37.3005C37.4842 37.3832 37.3416 37.44 37.1921 37.4675C37.0415 37.4963 36.8866 37.4947 36.7366 37.4628C36.5866 37.4309 36.4445 37.3694 36.3186 37.2819C36.0686 37.1057 35.8965 36.8397 35.8382 36.5395C35.7855 36.222 35.7617 35.9004 35.7672 35.5786C35.7808 35.266 35.8321 34.9562 35.9201 34.656C36.038 34.2693 36.2108 33.9016 36.4333 33.5641C36.6602 33.2089 36.94 32.8904 37.2631 32.6196C37.57 32.3558 37.9117 32.1354 38.2785 31.9645C38.6457 31.7888 39.035 31.6639 39.4359 31.5933C39.781 31.5261 40.1331 31.5022 40.4841 31.5223C40.8332 31.5368 41.1795 31.5917 41.5159 31.6861C42.2867 31.8696 42.9985 32.2452 43.585 32.778C44.0373 33.2268 44.324 33.8157 44.3985 34.4485C44.4645 35.0096 44.4143 35.5782 44.251 36.1191C44.079 36.7137 43.8524 37.2912 43.5741 37.8442C43.3339 38.352 42.7443 39.5749 41.9854 40.9725C41.2263 42.4256 40.3537 43.8166 39.3758 45.1325C38.0383 46.8522 36.7062 48.0205 35.6198 47.8622C34.5334 47.7038 33.72 46.1588 33.5234 42.512C33.5064 42.3533 33.5223 42.1929 33.5702 42.0407C33.6181 41.8885 33.697 41.7478 33.8018 41.6276C34.0083 41.4076 34.2921 41.2764 34.5935 41.2618C34.8949 41.2588 35.1866 41.3677 35.4124 41.5675C35.6418 41.7755 35.7793 42.0662 35.7945 42.3755C35.8655 43.784 36.0948 44.3955 36.3841 44.4992C36.6735 44.6029 37.0447 44.2371 37.476 43.6857C38.384 42.4579 39.1962 41.162 39.9054 39.8096C40.6151 38.4884 41.1774 37.3256 41.4122 36.8343C41.605 36.4483 41.7692 36.0487 41.9035 35.6387C42.0067 35.3558 42.0513 35.0549 42.0346 34.7542C42.0021 34.5852 41.9039 34.436 41.7616 34.3393C41.5016 34.1487 41.2094 34.0063 40.899 33.919C40.7202 33.8751 40.5371 33.8513 40.3531 33.848C40.1704 33.8378 39.9872 33.8488 39.8071 33.8807C39.6067 33.9161 39.412 33.9785 39.2284 34.0664C39.0462 34.1548 38.8741 34.2628 38.7153 34.3885C38.5743 34.5124 38.4496 34.6536 38.344 34.8088C38.2417 34.9578 38.1677 35.1244 38.1257 35.3002C38.0871 35.4335 38.0651 35.571 38.0601 35.7096C38.0359 35.8505 38.0359 35.9946 38.0601 36.1355L38.1202 36.1191Z" fill="#065B33"/>
<path fill-rule="evenodd" clip-rule="evenodd" d="M50.1804 11.4646V16.924L53.6397 16.924C54.7443 16.924 55.6397 17.8194 55.6397 18.924V23.659C55.6397 24.7635 54.7443 25.659 53.6397 25.659H44.5373C43.4327 25.659 42.5373 24.7635 42.5373 23.659V18.924C42.5373 17.8194 43.4327 16.924 44.5373 16.924L47.9966 16.924V11.4646H46.9047C45.1679 11.4626 43.5027 10.7718 42.2746 9.5436C41.0464 8.31545 40.3555 6.65029 40.3535 4.91342V1.63781H43.6291C44.8011 1.63883 45.9514 1.9541 46.9602 2.55075C47.969 3.14741 48.7993 4.00364 49.3647 5.03025C50.1717 4.25632 51.246 3.82338 52.3641 3.82155H55.6397V7.09716C55.6383 8.25505 55.1777 9.36509 54.3589 10.1838C53.5402 11.0026 52.4301 11.4632 51.2722 11.4646H50.1804ZM53.456 6.00529H52.3641C51.7851 6.00587 51.23 6.23613 50.8206 6.64553C50.4112 7.05494 50.1809 7.61005 50.1804 8.18903V9.2809H51.2722C51.8512 9.28033 52.4063 9.05007 52.8157 8.64066C53.2251 8.23126 53.4554 7.67615 53.456 7.09716V6.00529ZM43.8181 8.0001C44.6368 8.81885 45.7469 9.27946 46.9047 9.2809H47.9966V8.18903C47.9952 7.03115 47.5346 5.9211 46.7158 5.10235C45.8971 4.2836 44.787 3.823 43.6291 3.82155H42.5373V4.91342C42.5387 6.07131 42.9993 7.18135 43.8181 8.0001Z" fill="#065B33"/>
</g>
<defs>
<clipPath id="clip0_814_855">
<rect width="64" height="67.0845" fill="white" transform="translate(0.5)"/>
</clipPath>
</defs>
</svg>
