<svg id="e050fc51-b9c0-45b6-bd73-16b9b938eea7" data-name="Layer 1" xmlns="http://www.w3.org/2000/svg" viewBox="0 0 3240 3240"><defs><style>.e4958fe7-49eb-469d-9980-2ad6270eb8da{fill:#2a805c;}.a5274ae2-f60d-40cb-a937-e142b1f27733{fill:#f2f2f0;}</style></defs><circle class="e4958fe7-49eb-469d-9980-2ad6270eb8da" cx="1620" cy="1620" r="1551.97872"/><path class="a5274ae2-f60d-40cb-a937-e142b1f27733" d="M1498.7497,1424.89269c32.64647-19.62369,65.96143-38.1202,98.382-58.10837,11.25336-6.93867,19.67953-6.75419,30.81785.2432,26.67436,16.75587,55.45783,30.29225,81.09364,48.4518,21.17345,14.99893,38.22516,14.72021,57.96757-.97071,11.65272-9.26185,25.5523-15.62581,39.58483-23.97263-3.92877-2.71038-5.64444-4.06333-7.50922-5.15644-59.66132-34.96086-119.25016-70.05148-179.20572-104.48707-3.97853-2.28526-11.75079-1.34607-16.08676,1.11376-36.55013,20.73744-72.70986,42.17968-108.98816,63.40833-24.81437,14.52037-49.63019,29.03738-76.66487,44.85455,21.11649,12.34135,40.5173,23.04047,59.20052,34.89974C1485.28564,1430.21185,1491.07663,1429.50466,1498.7497,1424.89269Z"/><path class="a5274ae2-f60d-40cb-a937-e142b1f27733" d="M1517.09868,1296.901c27.99195-17.09524,56.67766-33.02328,84.74129-50.00219,7.71771-4.66957,13.58134-4.751,21.35361-.0344,28.40859,17.23971,57.21253,33.815,86.003,50.40058,3.54637,2.04319,9.09769,4.92317,11.70055,3.5347,18.65587-9.95289,36.78917-20.91105,55.71159-31.91161-2.48494-2.28318-3.31341-3.36-4.395-3.99277-50.547-29.5761-100.99558-59.33012-151.89808-88.26543-4.34237-2.4683-12.75239-1.33775-17.52883,1.32688-29.01291,16.18516-57.51494,33.30935-86.19825,50.10218-22.13167,12.95735-44.27887,25.888-68.50285,40.04835,17.329,10.2716,32.81944,18.98146,47.79069,28.52683C1503.34774,1301.3976,1509.19234,1301.72944,1517.09868,1296.901Z"/><path class="a5274ae2-f60d-40cb-a937-e142b1f27733" d="M1530.13986,1182.60264c24.15967-14.75477,48.91756-28.50219,73.1385-43.15632,6.66123-4.02989,11.72216-4.10045,18.42995-.0296,24.51918,14.87957,49.37931,29.1849,74.22777,43.50016,3.06078,1.76287,7.85226,4.24893,10.09848,3.05022,16.10133-8.59,31.75225-18.04755,48.08349-27.54172-2.1443-1.97119-2.8595-2.90046-3.79277-3.44638-43.62624-25.52653-87.16768-51.20682-131.10079-76.18023-3.74766-2.13039-11.006-1.15471-15.12869,1.14527-25.0403,13.969-49.64,28.74891-74.39577,43.24224-19.10178,11.183-38.21652,22.34335-59.12357,34.5647,14.95605,8.86538,28.32571,16.38244,41.24706,24.62126C1518.27179,1186.48309,1523.31655,1186.76965,1530.13986,1182.60264Z"/><path class="a5274ae2-f60d-40cb-a937-e142b1f27733" d="M1934.83271,1398.6332c4.49245,2.81646,7.76731,2.42143,12.10631-.15423,18.46131-10.95944,37.30085-21.28945,55.63431-32.45256,6.3638-3.875,11.12872-3.772,17.42739.13583,15.084,9.35786,31.361,16.91764,45.85791,27.05948,11.97351,8.37674,21.61616,8.22106,32.78023-.54207,6.58972-5.1726,14.44982-8.72682,22.38512-13.38838-2.22174-1.51359-3.192-2.26927-4.24653-2.87966-33.73815-19.52514-67.43518-39.12259-101.33973-58.35429-2.24974-1.27631-6.64491-.75183-9.09689.62208-20.66881,11.58135-41.117,23.55662-61.632,35.41237-14.03238,8.10938-28.06555,16.21684-43.3536,25.05054C1913.29639,1386.03474,1924.26751,1392.00989,1934.83271,1398.6332Z"/><path class="a5274ae2-f60d-40cb-a937-e142b1f27733" d="M1945.31424,1326.84878c4.22493,2.6603,7.53,2.84573,12.001.14911,15.82932-9.54745,32.0508-18.44306,47.9206-27.92539,4.36429-2.608,7.68027-2.65342,12.07543-.01936,16.06485,9.62809,32.35321,18.88514,48.634,28.148,2.00542,1.14111,5.14476,2.74958,6.61659,1.97407,10.54984-5.55852,20.80416-11.67848,31.50456-17.82211a22.112,22.112,0,0,0-2.48526-2.2299c-28.584-16.51764-57.11238-33.1348-85.89744-49.29468-2.45567-1.37839-7.21131-.747-9.91241.741-16.4066,9.03914-32.5244,18.60291-48.7446,27.9814-12.51527,7.23642-25.03949,14.458-38.73795,22.36623C1928.08828,1316.65349,1936.84806,1321.51777,1945.31424,1326.84878Z"/><path class="a5274ae2-f60d-40cb-a937-e142b1f27733" d="M1964.68993,1263.16413c13.66214-8.24026,27.66252-15.918,41.35938-24.10191,3.76685-2.2507,6.62875-2.29006,10.422-.01664,13.8655,8.31,27.92379,16.29924,41.97537,24.29406,1.73087.98464,4.44045,2.373,5.71052,1.70351,9.10537-4.7974,17.95571-10.07928,27.191-15.38164a19.04725,19.04725,0,0,0-2.14479-1.92463c-24.67037-14.25606-49.29275-28.59819-74.13673-42.54529-2.11918-1.18991-6.22379-.64495-8.55514.63952-14.16021,7.80154-28.071,16.05572-42.0704,24.15006-10.80184,6.24555-21.6112,12.47847-33.434,19.30386,8.4577,4.951,16.01812,9.14921,23.325,13.75046C1957.97862,1265.33131,1960.8314,1265.49147,1964.68993,1263.16413Z"/><path class="a5274ae2-f60d-40cb-a937-e142b1f27733" d="M2190.01915,1415.77516c3.43645,2.15454,5.94139,1.8523,9.26041-.11792,14.12182-8.3833,28.53275-16.285,42.55665-24.824,4.8678-2.9643,8.51273-2.88542,13.33078.10384,11.53831,7.15819,23.9891,12.94087,35.0783,20.69873,9.15881,6.40763,16.53492,6.28859,25.07469-.41472,5.04061-3.95661,11.053-6.67531,17.12308-10.241-1.69951-1.15791-2.44159-1.736-3.2483-2.20287-25.80733-14.93541-51.58346-29.92618-77.51815-44.63711-1.72094-.97631-5.083-.575-6.95851.47568-15.81028,8.85913-31.45176,18.01939-47.14445,27.08828-10.73384,6.20315-21.46832,12.40487-33.16263,19.16194C2173.54535,1406.13827,2181.93745,1410.709,2190.01915,1415.77516Z"/><path class="a5274ae2-f60d-40cb-a937-e142b1f27733" d="M2198.03685,1360.865c3.23166,2.03487,5.76,2.17663,9.17993.11392,12.10839-7.30314,24.51678-14.10757,36.656-21.361,3.33854-1.995,5.87484-2.02974,9.23689-.01488,12.28855,7.36491,24.74814,14.446,37.202,21.53136,1.53391.8728,3.93533,2.10319,5.06124,1.51007,8.06986-4.252,15.91364-8.93321,24.09886-13.6327a16.8812,16.8812,0,0,0-1.9011-1.70575c-21.8648-12.63494-43.6872-25.346-65.70592-37.70724-1.87838-1.05439-5.51612-.57151-7.58234.56688-12.55,6.91435-24.87886,14.22981-37.28629,21.40384-9.57337,5.53532-19.15362,11.05928-29.63194,17.10867C2184.86015,1353.06618,2191.56074,1356.78711,2198.03685,1360.865Z"/><path class="a5274ae2-f60d-40cb-a937-e142b1f27733" d="M2212.85786,1312.15048c10.45064-6.30331,21.16-12.17623,31.63721-18.4365,2.88142-1.72159,5.07052-1.75167,7.97226-.01264,10.606,6.35659,21.35968,12.46775,32.10824,18.58338,1.324.75312,3.39662,1.815,4.36829,1.303,6.96491-3.66973,13.73494-7.71,20.7992-11.766a14.57954,14.57954,0,0,0-1.64062-1.47231c-18.87122-10.90488-37.70564-21.87552-56.70966-32.54424-1.62111-.91007-4.76077-.49328-6.54412.48928-10.8316,5.96747-21.47248,12.28151-32.181,18.47314-8.26266,4.77741-16.53108,9.545-25.57469,14.76613,6.46939,3.78717,12.25255,6.99867,17.84195,10.51832C2207.72414,1313.80807,2209.90636,1313.93063,2212.85786,1312.15048Z"/><path class="a5274ae2-f60d-40cb-a937-e142b1f27733" d="M1182.37427,1411.24927c4.43341,2.7795,7.66539,2.38958,11.94743-.15232,18.21907-10.8156,36.81109-21.00992,54.90408-32.02648,6.28027-3.82429,10.98264-3.72253,17.19859.13408,14.88613,9.235,30.94953,16.69555,45.256,26.70428,11.81639,8.26666,21.33248,8.11306,32.35-.535,6.50315-5.1046,14.26005-8.61209,22.0912-13.21254-2.19247-1.49391-3.15006-2.2395-4.19069-2.84206-33.29528-19.26865-66.55007-38.609-100.0095-57.58821-2.22031-1.25951-6.55772-.74192-8.97754.61391-20.39761,11.42936-40.5773,23.24735-60.82323,34.94759-13.84806,8.003-27.69707,16.004-42.78448,24.72173C1161.12067,1398.81608,1171.94779,1404.713,1182.37427,1411.24927Z"/><path class="a5274ae2-f60d-40cb-a937-e142b1f27733" d="M1192.7182,1340.40707c4.16957,2.62527,7.4313,2.8083,11.84359.147,15.62148-9.422,31.63017-18.20082,47.29149-27.55883,4.30717-2.57358,7.57946-2.61854,11.917-.019,15.854,9.50185,31.92857,18.6373,47.99565,27.77851,1.97918,1.12607,5.07724,2.71342,6.52987,1.94815,10.41128-5.48556,20.53089-11.5252,31.091-17.58819a21.81528,21.81528,0,0,0-2.45262-2.20063c-28.20891-16.30084-56.36279-32.69991-84.7701-48.64764-2.42334-1.36047-7.11674-.73727-9.78216.73136-16.1914,8.92041-32.09753,18.35842-48.10477,27.61387-12.35111,7.14155-24.71086,14.26822-38.22964,22.0728C1175.71832,1330.34555,1184.36322,1335.146,1192.7182,1340.40707Z"/><path class="a5274ae2-f60d-40cb-a937-e142b1f27733" d="M1211.83966,1277.55842c13.48278-8.1321,27.29947-15.70916,40.81649-23.78575,3.71742-2.2211,6.54172-2.26,10.28521-.01631,13.68342,8.20089,27.55723,16.08532,41.42433,23.97518,1.70815.97167,4.38221,2.34174,5.63564,1.68111,8.98569-4.73437,17.72-9.947,26.834-15.17973a18.78956,18.78956,0,0,0-2.11662-1.89951c-24.34654-14.06885-48.64572-28.22267-73.16362-41.98673-2.09135-1.17423-6.142-.63647-8.44282.6312-13.9743,7.699-27.70267,15.845-41.51809,23.83294-10.66024,6.16364-21.32769,12.31463-32.99528,19.05042,8.34666,4.8862,15.80772,9.02937,23.01887,13.57014C1205.21634,1279.69712,1208.03168,1279.855,1211.83966,1277.55842Z"/><path class="a5274ae2-f60d-40cb-a937-e142b1f27733" d="M945.41858,1437.00556c2.78638,1.74671,4.81741,1.50175,7.50859-.09568,11.45-6.79723,23.13439-13.20406,34.50518-20.12753,3.94685-2.40334,6.90219-2.3395,10.80872.08432,9.35529,5.8038,19.45058,10.49256,28.44155,16.7826,7.42619,5.19532,13.40678,5.09884,20.33089-.33616,4.087-3.20814,8.96186-5.41244,13.88342-8.30362-1.37791-.93887-1.97966-1.40751-2.63358-1.78607-20.925-12.10983-41.82433-24.26446-62.85234-36.19221-1.39535-.79151-4.12125-.46624-5.642.38592-12.81911,7.183-25.50142,14.61013-38.22516,21.9632-8.703,5.02956-17.40659,10.058-26.88844,15.53668C932.06156,1429.1917,938.866,1432.89775,945.41858,1437.00556Z"/><path class="a5274ae2-f60d-40cb-a937-e142b1f27733" d="M951.9195,1392.48381c2.6203,1.64991,4.6702,1.76495,7.44314.09248,9.81753-5.9214,19.87841-11.43864,29.72106-17.31971,2.7067-1.61743,4.76333-1.64559,7.48923-.012,9.9636,5.97147,20.06609,11.71287,30.16361,17.45779,1.24383.70767,3.19086,1.70527,4.10365,1.22431,6.54315-3.4475,12.903-7.24315,19.53954-11.05352a13.70206,13.70206,0,0,0-1.54143-1.383c-17.72819-10.2444-35.42182-20.55057-53.27465-30.57321-1.523-.85488-4.4726-.46336-6.14779.45967-10.17577,5.6062-20.17217,11.53768-30.2321,17.35428-7.76218,4.48812-15.5298,8.96713-24.0259,13.87189C941.23573,1386.16066,946.66865,1389.17759,951.9195,1392.48381Z"/><path class="a5274ae2-f60d-40cb-a937-e142b1f27733" d="M963.93653,1352.98586c8.47337-5.11084,17.15667-9.87257,25.65165-14.94853a5.4895,5.4895,0,0,1,6.46379-.01024c8.59962,5.154,17.31875,10.10905,26.03373,15.06757,1.07343.61056,2.75406,1.47167,3.54173,1.05647,5.64732-2.97533,11.1364-6.25131,16.8642-9.53993a11.81851,11.81851,0,0,0-1.33023-1.19375c-15.30085-8.84169-30.57194-17.73683-45.98046-26.38716-1.31439-.73792-3.86014-.39984-5.306.39679-8.78234,4.83853-17.41012,9.958-26.09261,14.97813-6.69947,3.87358-13.40358,7.73931-20.73633,11.97256,5.24556,3.07069,9.93465,5.67451,14.46645,8.52825A5.33366,5.33366,0,0,0,963.93653,1352.98586Z"/><path class="a5274ae2-f60d-40cb-a937-e142b1f27733" d="M2484.61009,726.17673q-24.3399-24.22206-78.61638-24.27438H1957.259q-54.30272,0-78.5903,24.27438a67.67535,67.67535,0,0,0-11.37688,15.781q230.1475,34.36679,460.3214,132.72254a60.9002,60.9002,0,0,1,36.64741,56.8847c-1.62527,107.13744-.62911,214.30113-.62911,341.23043-4.06381,78.68054,3.25085,167.71493-.78016,259.24017-15.45588-2.055-50.31755-5.87836-99.73046-6.67019q.00264-33.97775.01824-67.95566c.00176-1.94111.22912-3.88221.4112-6.77035,2.91341,1.48575,4.92316,2.40446,6.83067,3.50109,11.28455,6.48812,22.50991,13.08039,33.85415,19.46178,1.61534.90863,4.286,1.81391,5.59115,1.10527,10.39257-5.64332,20.57329-11.67655,31.31945-17.87907a32.52535,32.52535,0,0,0-2.70206-2.03566c-28.57915-16.51956-57.20054-32.9668-85.71072-49.60491-3.16158-1.84511-5.37244-1.27407-8.22058.38031q-41.6169,24.17118-83.33859,48.16205c-1.40255.81039-2.66078,1.87054-4.43517,3.134,10.48425,6.06332,20.37473,11.92648,30.45386,17.44516,1.37647.75359,4.01453.36559,5.52428-.473,10.72184-5.95612,21.29136-12.18583,31.93416-18.285,2.86558-1.64222,5.81644-3.13469,9.02458-4.855v74.58041c-30.50842.2936-65.2176,1.803-103.37636,5.38892-30.08938,2.82766-63.68593,7.15531-99.90086,13.57894q.00336-45.59127.02448-91.18269c.00224-2.53758.29952-5.07532.53743-8.851,3.80878,1.94238,6.43612,3.14349,8.92986,4.57708,14.75237,8.48186,29.42714,17.1,44.25759,25.44254,2.11183,1.18783,5.60316,2.37118,7.30939,1.44479,13.58614-7.37739,26.89532-15.26485,40.944-23.37343a42.55513,42.55513,0,0,0-3.53245-2.6611c-37.36164-21.596-74.77849-43.0976-112.04989-64.84864-4.13309-2.41215-7.02347-1.66559-10.7468.49711q-54.40567,31.59913-108.9488,62.96242c-1.83358,1.05935-3.47837,2.44526-5.79819,4.09709,13.70629,7.92682,26.63612,15.59156,39.81266,22.80623,1.79935.98511,5.248.47792,7.22187-.6184,14.01653-7.78634,27.834-15.93044,41.74753-23.904,3.74605-2.14686,7.60378-4.09805,11.798-6.347v107.4048c-103.2146,21.67648-223.91674,60.73412-345.57152,130.18448q0-79.653.0512-159.25834c0-4.53517.52431-9.07017.94367-15.83348,6.73707,3.48653,11.377,5.63611,15.781,8.179,26.10941,15.2042,52.06138,30.61817,78.27558,45.56014,3.72238,2.12334,9.90905,4.24685,12.92359,2.59534,24.03854-13.21206,47.55261-27.34156,72.40362-41.86417-2.936-2.25438-4.45628-3.72237-6.239-4.74477-66.08591-38.666-132.25054-77.17463-198.1531-116.1289-7.3137-4.32541-12.42551-2.98846-19.0053.8912q-96.21936,56.58342-192.64817,112.74732c-3.25054,1.88751-6.16044,4.37789-10.27609,7.33995,24.24814,14.182,47.107,27.91819,70.41148,40.81554,3.19806,1.78254,9.27977.86511,12.76631-1.101,24.79853-13.946,49.23019-28.52106,73.84537-42.80784,6.606-3.82717,13.4479-7.31371,20.84033-11.35064v174.48176q-39.24259-19.30691-79.796-36.72613a1767.15009,1767.15009,0,0,0-185.25575-67.47534c-5.3478-1.62527-10.69544-3.22446-15.99077-4.771-.05231,0-.10479-.02624-.15727-.02624q-10.25608-3.00453-20.37169-5.83676.0072-50.79874.0272-101.597c.00224-2.5043.29551-5.00876.53039-8.73481,3.75869,1.917,6.3518,3.10222,8.81258,4.51693,14.55877,8.37049,29.04106,16.87555,43.67679,25.10861,2.084,1.17215,5.52956,2.34014,7.21339,1.42591,13.4079-7.28075,26.54237-15.06453,40.40658-23.06671a41.98406,41.98406,0,0,0-3.486-2.62606c-36.87125-21.31264-73.7969-42.532-110.579-63.99761-4.079-2.38046-6.93131-1.64367-10.60585.49072q-53.69168,31.18418-107.51872,62.13586c-1.80959,1.04559-3.43278,2.41326-5.722,4.04333,13.5263,7.82266,26.28637,15.38693,39.29,22.50687,1.77583.97216,5.17916.47168,7.127-.61039,13.8327-7.684,27.46891-15.72117,41.19953-23.59007,3.6971-2.1187,7.50411-4.04429,11.64328-6.26363v100.05414a1814.18755,1814.18755,0,0,0-234.00371-44.11631q.00144-20.73873.0112-41.47746c.00144-1.57391.18575-3.14781.33327-5.4894,2.36223,1.20463,3.99181,1.94959,5.53836,2.8387,9.14969,5.26044,18.25123,10.60568,27.44924,15.77972,1.30975.7368,3.47517,1.47071,4.53341.89616,8.42633-4.57565,16.68083-9.46745,25.394-14.49653a26.35127,26.35127,0,0,0-2.19087-1.65039c-23.17214-13.39414-46.37869-26.72972-69.49484-40.22019-2.5635-1.496-4.35613-1.033-6.66523.30848q-33.74328,19.598-67.57166,39.05011c-1.13712.65712-2.15727,1.51663-3.59614,2.54111,8.5009,4.91628,16.5202,9.67,24.6923,14.14469,1.11615.61088,3.255.29632,4.47917-.38352,8.69337-4.82924,17.26307-9.88024,25.89229-14.82565,2.3235-1.33151,4.71612-2.54158,7.31738-3.93645v44.22864c-51.86537-5.45836-88.20447-6.73259-103.31987-7.038-3.74862-190.97059-.02624-382.12454-1.67775-573.17369-.28832-31.85032,13.5527-44.69519,39.63586-55.81q234.31579-99.719,468.50038-133.08941a69.862,69.862,0,0,0-12.609-14.2607q-28.626-24.22206-82.88931-24.27438H834.00629q-54.34185,0-78.59014,24.27438-24.3399,24.34014-24.30062,78.61638V1559.3429q0,68.57637,4.29917,115.76186a537.03452,537.03452,0,0,0,15.70228,90.01966q11.40327,42.86008,28.57355,90.04573c.131.28832.23584.62912.367.94368a506.164,506.164,0,0,0,118.75032,185.01991l655.06684,652.73374,9.77785,9.7516a85.77984,85.77984,0,0,0,112.69484,0l9.77785-9.72536,656.08923-653.75613a505.12248,505.12248,0,0,0,118.095-184.96744q17.144-47.18557,28.57355-90.04573a539.70644,539.70644,0,0,0,15.72852-90.01966q4.28589-47.18557,4.27293-115.76186V804.79311Q2508.88447,750.52976,2484.61009,726.17673ZM1178.14646,2144.54881q-94.41049-79.46844-159.74938-174.19343-17.4193-29.491-34.07846-60.60723c101.7898,32.29592,286.70476,222.29644,370.35422,366.99889C1294.01329,2235.06639,1234.45453,2191.94414,1178.14646,2144.54881Zm400.08121,256.42739c-3.067-.05248-6.1342-.1312-9.20121-.20976-3.95837-.1048-8.38858-8.3361-11.66536-14.05077-134.8982-236.66194-305.29054-389.884-492.46-503.39149-16.3834-9.94376-71.32507-36.20965-126.93266-61.953q-14.45629-35.53269-25.48285-72.6897c285.98876,106.24033,577.01749,315.52855,776.8117,652.583Zm235.48226-76.67655c-232.20549-337.84871-511.07223-529.86777-821.99889-621.64373-11.349-3.35134-52.98633-15.51637-97.48424-28.15227q-3.96141-19.92371-6.95323-40.293,165.81815,18.79547,320.70467,76.20472a1284.26329,1284.26329,0,0,1,238.65408,117.859c161.47961,101.97333,312.0801,245.57467,450.64851,438.40636Q1855.67883,2295.69986,1813.70993,2324.29965Zm210.97188-149.21138c-2.59518,1.94-5.2166,3.87981-7.81178,5.7934-37.61748-45.61279-76.54552-87.8176-116.10282-128.31858q-158.30739-162.12168-336.35448-271.42183c-132.8355-81.494-269.44409-141.28216-410.63217-170.53746-.09568-.02432-.17935-.04768-.27535-.07216-92.12908-23.42127-217.79663-32.793-272.91223-35.94646-.70191-8.735-1.31247-17.50243-1.73406-26.35724-.31456-5.60972-.52432-11.2196-.70784-16.8818,18.58594.39312,67.63262,2.25439,137.25755,11.24584a1798.0745,1798.0745,0,0,1,290.40105,62.49458c145.72468,44.24959,331.00668,121.634,509.86631,256.06051q138.293,113.206,269.82281,264.31773Q2056.59749,2151.25956,2024.68181,2175.08827Zm82.968-70.09676q-24.89046-31.37833-51.43226-61.31507c66.79374-66.42671,136.65451-115.97162,213.56706-156.21037A804.26528,804.26528,0,0,1,2107.64984,2104.99151Zm196.423-294.25447c-96.547,39.37379-189.31909,95.31482-278.05411,166.35541-7.02539,5.60988-13.60518,10.04009-19.87041,12.71383q-26.81716-27.48557-55.04984-53.55561c121.00487-86.58544,244.15916-146.616,373.13309-183.49944Q2315.109,1782.32093,2304.07287,1810.737Zm46.60877-165.6999q-3.34221,18.04836-7.3137,35.70374c-158.43867,20.81409-309.95675,86.1136-456.73007,180.14395a74.943,74.943,0,0,1-14.23445,7.39243q-34.24872-27.64276-70.25405-53.34585c180.79947-108.21232,362.93572-164.31063,550.49834-181.0353C2352.01859,1637.61848,2351.36324,1641.31461,2350.68164,1645.03714Zm8.51962-60.73843c-8.7817-.18352-17.56355-.28831-26.319-.44559-93.06043-1.52047-174.66527,2.46414-274.27925,26.05692-27.97707,6.62619-53.57688,12.37879-81.264,20.97137-76.0212,23.59278-131.071,47.18557-209.71365,89.1283-9.20025,4.90684-37.87908,21.55392-60.24788,32.34216-2.25646-1.37439-4.49132-2.77886-6.75563-4.13565q-30.055-18.15179-61.1213-35.03958c184.1876-109.92735,368.275-147.21683,492.1938-158.9449,119.31112-11.28856,206.40791-1.67759,229.82454,1.4563C2360.89037,1565.20333,2360.16349,1574.73894,2359.20126,1584.29871Z"/></svg>